<svg width="39" height="39" viewBox="0 0 39 39" fill="none" xmlns="http://www.w3.org/2000/svg">
<path d="M22.6431 28.0182H31.147C34.7206 28.0182 37.6175 30.9063 37.6175 34.4691V35.1868C37.6175 36.402 36.6294 37.3871 35.4105 37.3871H4.43746C3.21859 37.3871 2.23047 36.402 2.23047 35.1868V34.4691C2.23047 30.9063 5.12744 28.0182 8.70102 28.0182H17.0755" stroke="#216F9A" stroke-width="2.5" stroke-miterlimit="10"/>
<path d="M22.7312 24.8361V27.3123C22.7312 28.8936 21.4454 30.1755 19.8592 30.1755C18.2731 30.1755 16.9873 28.8936 16.9873 27.3123V24.8361" stroke="#216F9A" stroke-width="2.5" stroke-miterlimit="10"/>
<path d="M8.83008 37.3871V34.2319" stroke="#216F9A" stroke-width="2.5" stroke-miterlimit="10" stroke-linecap="round"/>
<path d="M31.0181 37.3871V34.2319" stroke="#216F9A" stroke-width="2.5" stroke-miterlimit="10" stroke-linecap="round"/>
<path d="M12.5825 12.0512V18.1667C12.5825 22.1735 15.8406 25.4216 19.8596 25.4216C23.8785 25.4216 27.1365 22.1735 27.1365 18.1667V12.0512" stroke="#216F9A" stroke-width="2.5" stroke-miterlimit="10" stroke-linecap="round"/>
<path d="M13.21 28.0182V33.4544C13.21 33.4893 13.2169 33.5238 13.2303 33.556C13.2437 33.5882 13.2633 33.6175 13.288 33.6421C13.3127 33.6667 13.342 33.6863 13.3743 33.6996C13.4065 33.7128 13.4411 33.7197 13.476 33.7196H26.3762C26.523 33.7196 26.6421 33.6009 26.6421 33.4544V28.0182" stroke="#216F9A" stroke-width="2.5" stroke-miterlimit="10"/>
<path d="M27.8705 12.0511H11.8481V9.9868C11.8481 5.57583 15.4349 1.99997 19.8593 1.99997C24.2838 1.99997 27.8705 5.57583 27.8705 9.9868V12.0511Z" stroke="#216F9A" stroke-width="2.5" stroke-miterlimit="10"/>
<path d="M9.64551 12.0511H30.0729" stroke="#216F9A" stroke-width="2.5" stroke-miterlimit="10" stroke-linecap="round"/>
<path d="M18.0239 2.21385V6.67908" stroke="#216F9A" stroke-width="2.5" stroke-miterlimit="10" stroke-linecap="round"/>
<path d="M21.6948 2.21385V6.67908" stroke="#216F9A" stroke-width="2.5" stroke-miterlimit="10" stroke-linecap="round"/>
</svg>
