<svg width="42" height="30" viewBox="0 0 42 30" fill="none" xmlns="http://www.w3.org/2000/svg">
<path d="M5.02174 30C3.6151 30 2.42647 29.4987 1.45585 28.4961C0.485283 27.4935 0 26.276 0 24.8438V12.1875C0 11.4141 0.268207 10.752 0.80462 10.2012C1.34103 9.65039 1.98587 9.375 2.73913 9.375H13.2391V0H22.6891C24.0714 0 25.2463 0.5 26.2138 1.5C27.1814 2.5 27.6804 3.71875 27.7109 5.15625V13.5938H30.45V10.7812C30.45 10.4062 30.5175 10.0472 30.6525 9.70425C30.7874 9.36128 30.9787 9.06403 31.2261 8.8125L34.4217 5.48438L42 20.1562H33.1891C32.4359 20.1562 31.791 19.8809 31.2546 19.3301C30.7182 18.7793 30.45 18.1172 30.45 17.3438V16.4062H27.7109V20.8594C28.2891 21.3594 28.738 21.9564 29.0576 22.6506C29.3772 23.3447 29.537 24.0758 29.537 24.8438C29.537 26.276 29.0487 27.4935 28.0723 28.4961C27.0958 29.4987 25.9101 30 24.5152 30C23.3891 30 22.3924 29.6562 21.525 28.9688C20.6576 28.2812 20.0565 27.3906 19.7217 26.2969H9.81522C9.48043 27.3906 8.87935 28.2812 8.01196 28.9688C7.14457 29.6562 6.14783 30 5.02174 30ZM5.01306 27.1875C5.64644 27.1875 6.18666 26.9637 6.63372 26.516C7.0808 26.0684 7.30435 25.5137 7.30435 24.852C7.30435 24.1902 7.08636 23.6328 6.65038 23.1797C6.21443 22.7266 5.67422 22.5 5.02973 22.5C4.38527 22.5 3.84239 22.7238 3.40109 23.1715C2.95978 23.6191 2.73913 24.1738 2.73913 24.8355C2.73913 25.4973 2.95978 26.0547 3.40109 26.5078C3.84239 26.9609 4.37972 27.1875 5.01306 27.1875ZM24.5072 27.1875C25.1517 27.1875 25.6946 26.9637 26.1359 26.516C26.5772 26.0684 26.7978 25.5137 26.7978 24.852C26.7978 24.1902 26.5798 23.6328 26.1439 23.1797C25.7079 22.7266 25.1677 22.5 24.5232 22.5C23.8787 22.5 23.3359 22.7238 22.8946 23.1715C22.4533 23.6191 22.2326 24.1738 22.2326 24.8355C22.2326 25.4973 22.4506 26.0547 22.8866 26.5078C23.3225 26.9609 23.8627 27.1875 24.5072 27.1875ZM13.2391 23.4375V12.1875H2.73913V20.2969C3.07391 20.1094 3.43913 19.9609 3.83478 19.8516C4.23043 19.7422 4.62609 19.6875 5.02174 19.6875C6.14783 19.6875 7.15217 20.0391 8.03478 20.7422C8.91739 21.4453 9.51087 22.3438 9.81522 23.4375H13.2391ZM15.9783 23.4375H19.6761C19.9804 22.3438 20.5815 21.4453 21.4793 20.7422C22.3772 20.0391 23.3891 19.6875 24.5152 19.6875H24.9717V16.4062H15.9783V23.4375ZM37.4804 17.3438L33.6457 10.125C33.4935 10.2188 33.3793 10.3438 33.3033 10.5C33.2272 10.6562 33.1891 10.8281 33.1891 11.0156V17.3438H37.4804ZM15.9783 13.5938H24.9717V5.15625C24.9717 4.49219 24.753 3.93555 24.3155 3.48633C23.878 3.03711 23.3359 2.8125 22.6891 2.8125H15.9783V13.5938ZM13.2391 23.4375V19.6875V20.2969V12.1875V23.4375Z" fill="#216F9A"/>
</svg>
