<svg width="36" height="36" viewBox="0 0 36 36" fill="none" xmlns="http://www.w3.org/2000/svg">
<path d="M25.335 27.315L27.315 25.47C27.525 25.26 27.63 25.0275 27.63 24.7725C27.63 24.5175 27.525 24.285 27.315 24.075L20.475 17.235C20.625 16.815 20.745 16.41 20.835 16.02C20.925 15.63 20.97 15.225 20.97 14.805C20.97 13.065 20.355 11.58 19.125 10.35C17.895 9.12 16.41 8.505 14.67 8.505C14.16 8.505 13.65 8.58 13.14 8.73C12.63 8.88 12.135 9.09 11.655 9.36L15.615 13.275L13.185 15.57L9.315 11.745C9.045 12.225 8.8425 12.72 8.7075 13.23C8.5725 13.74 8.505 14.265 8.505 14.805C8.505 16.515 9.105 17.9625 10.305 19.1475C11.505 20.3325 12.96 20.925 14.67 20.925C15.09 20.925 15.5025 20.8875 15.9075 20.8125C16.3125 20.7375 16.725 20.625 17.145 20.475L23.94 27.315C24.12 27.495 24.3525 27.585 24.6375 27.585C24.9225 27.585 25.155 27.495 25.335 27.315ZM18 36C15.54 36 13.215 35.5275 11.025 34.5825C8.835 33.6375 6.9225 32.3475 5.2875 30.7125C3.6525 29.0775 2.3625 27.165 1.4175 24.975C0.4725 22.785 0 20.46 0 18C0 15.51 0.4725 13.17 1.4175 10.98C2.3625 8.79 3.6525 6.885 5.2875 5.265C6.9225 3.645 8.835 2.3625 11.025 1.4175C13.215 0.4725 15.54 0 18 0C20.49 0 22.83 0.4725 25.02 1.4175C27.21 2.3625 29.115 3.645 30.735 5.265C32.355 6.885 33.6375 8.79 34.5825 10.98C35.5275 13.17 36 15.51 36 18C36 20.46 35.5275 22.785 34.5825 24.975C33.6375 27.165 32.355 29.0775 30.735 30.7125C29.115 32.3475 27.21 33.6375 25.02 34.5825C22.83 35.5275 20.49 36 18 36ZM18 33.3C22.26 33.3 25.875 31.8075 28.845 28.8225C31.815 25.8375 33.3 22.23 33.3 18C33.3 13.74 31.815 10.125 28.845 7.155C25.875 4.185 22.26 2.7 18 2.7C13.77 2.7 10.1625 4.185 7.1775 7.155C4.1925 10.125 2.7 13.74 2.7 18C2.7 22.23 4.1925 25.8375 7.1775 28.8225C10.1625 31.8075 13.77 33.3 18 33.3Z" fill="#216F9A"/>
</svg>
