<svg width="258" height="23" viewBox="0 0 258 23" fill="none" xmlns="http://www.w3.org/2000/svg">
<mask id="mask0_158_8" style="mask-type:alpha" maskUnits="userSpaceOnUse" x="0" y="0" width="31" height="23">
<rect y="0.401855" width="31" height="21.7304" fill="#D9D9D9"/>
</mask>
<g mask="url(#mask0_158_8)">
<path d="M0 22.1535L7.63399 6.41492H10.3529L2.71895 22.1535H0Z" fill="#FA6D6A"/>
<path d="M8.5752 4.37571L10.5621 0.401855H13.2811L11.2941 4.37571H8.5752Z" fill="#FA6D6A"/>
<path d="M6.06543 22.1535L16.6275 0.401855H19.3465L8.78438 22.1535H6.06543Z" fill="#FA6D6A"/>
<path d="M23.9478 9.44761L19.5556 0.401855H16.8366L21.2288 9.44761H23.9478Z" fill="#FA6D6A"/>
<path d="M30.1699 22.1011L25.7778 13.2645H23.0588L27.451 22.1011H30.1699Z" fill="#FA6D6A"/>
<path d="M6.0653 22.1778L30.2457 22.1823L28.9673 19.7366L7.25341 19.7322L6.0653 22.1778Z" fill="#FA6D6A"/>
</g>
<path d="M50.1981 22H49.8939C49.1638 22 48.3424 21.8786 48.1903 21.2109L48.1599 20.9377C48.1599 20.0272 48.7379 17.7811 49.4984 15.2316C50.7761 10.9521 52.6014 5.70128 53.2098 4.21406L53.0273 4.18371C51.6887 4.18371 48.8292 9.52556 48.5858 10.6789L48.5554 11.1038C48.5554 11.2556 48.5554 11.3163 48.6162 11.3466C48.7683 11.377 48.89 11.5288 48.89 11.6502C48.89 11.7716 48.8292 11.8626 48.6771 11.9233C48.2816 12.0447 47.7948 12.1965 47.3081 12.1965C47.0039 12.1965 46.7301 12.1358 46.5172 12.0144C46.1217 11.7716 46 11.377 46 10.9521C46 10.7093 46.0304 10.4361 46.0913 10.1933C46.6997 7.91693 49.7722 3.24281 52.358 3.03035L52.9056 3C54.092 3 55.9173 3.30351 55.9173 4.42652C55.9173 4.60863 55.8564 4.79073 55.7652 5.00319C55.3697 5.97444 53.3619 11.5288 51.9321 16.0815C51.1107 18.631 50.5023 20.8466 50.4719 21.6965C50.4719 21.8482 50.3502 22 50.1981 22Z" fill="white"/>
<path d="M60.4945 20.5431C59.3993 20.5431 58.6388 20.3003 58.6388 18.7827C58.6996 16.5671 60.4032 11.6502 60.4336 11.2859C60.4336 11.1949 60.4032 11.1342 60.3424 11.1342C60.2511 11.1342 60.1294 11.2252 60.0382 11.3163C58.5779 12.6214 56.5093 16.0208 55.9617 16.9617C55.5967 18.2971 55.2925 19.5112 55.262 20.2093C55.262 20.4824 55.1099 20.5128 54.8666 20.5128H54.7145C53.9844 20.5128 53.0109 20.361 52.9805 19.6629C52.9805 18.115 54.7753 12.1358 55.5358 10.1629C55.6271 9.92013 55.9313 9.79872 56.2964 9.79872C57.0265 9.79872 58.0304 10.2236 58.0304 10.7093L57.9999 10.8307C57.7566 11.4073 56.7527 14.4121 56.6614 14.655C57.1177 13.9872 57.6349 13.2284 58.1825 12.5304C59.0951 11.3466 60.3728 9.79872 61.6505 9.79872C62.411 9.79872 63.0498 10.254 63.0498 11.0735L63.0194 11.4377C62.5935 13.5319 61.1333 17.599 61.1333 19.3594C61.1333 19.7236 61.1637 19.9058 61.3158 19.9058C62.0764 19.845 62.624 18.8434 64.7534 14.0783C64.8143 13.9569 64.9055 13.8962 64.9968 13.8962C65.1793 13.8962 65.3314 14.0176 65.3314 14.1997C65.3314 14.23 65.3314 14.2604 65.301 14.3211C63.1715 19.147 62.5023 20.4521 61.3463 20.5128L60.4945 20.5431Z" fill="white"/>
<path d="M66.3581 20.5128H65.9018C65.1717 20.5128 64.472 20.4217 64.1982 19.7843C64.0461 19.4505 63.9549 18.9649 63.9549 18.4185C63.9549 16.0511 65.2021 12.1054 66.3277 9.07029C65.7193 9.03994 65.1413 9.03994 64.6546 9.03994C64.472 9.00958 64.3503 8.85783 64.3503 8.73642C64.3503 8.58466 64.472 8.43291 64.6546 8.43291L66.5407 8.46326C66.9361 7.43131 67.3012 6.55112 67.6054 5.88339C67.6967 5.61022 68.0009 5.51917 68.3659 5.51917C69.1569 5.51917 70.252 6.00479 70.252 6.46006L70.2216 6.55112C69.9478 7.15815 69.674 7.82588 69.4003 8.55431L70.9213 8.58466C71.1038 8.58466 71.2255 8.73642 71.2255 8.88818C71.2255 9.03994 71.1038 9.19169 70.8909 9.19169C70.3737 9.16134 69.7957 9.16134 69.1569 9.16134C68.2138 11.9537 67.1795 15.0799 66.5711 17.6597C66.5102 17.8419 66.2365 19.0863 66.2365 19.6326C66.2365 19.845 66.2669 19.9058 66.3581 19.9058C66.6928 19.9058 67.2708 19.1773 67.4837 18.9042C68.4268 17.6294 69.5219 15.3834 70.1304 14.0783C70.1912 13.9265 70.2825 13.8962 70.4042 13.8962C70.4346 13.8962 70.4954 13.8962 70.5563 13.9265C70.6475 13.9872 70.7084 14.0783 70.7084 14.1997C70.7084 14.1997 70.7084 14.2604 70.6779 14.3211C70.0391 15.778 68.9135 18.024 67.8792 19.3898C67.5141 19.8147 66.9361 20.4824 66.3581 20.5128Z" fill="white"/>
<path d="M72.7399 15.353C74.048 15.353 75.782 12.6821 75.782 11.7109C75.782 11.5288 75.7212 11.4377 75.6299 11.377C75.5387 11.3163 75.4778 11.3163 75.3866 11.3163C74.6869 11.3163 73.7134 12.5911 73.4092 13.016C72.9529 13.7141 72.5574 14.5032 72.314 15.2316C72.4357 15.3227 72.5878 15.353 72.7399 15.353ZM73.3179 20.5128H72.9833C70.3975 20.4217 69.4544 18.9042 69.4544 16.992C69.4544 16.0511 69.6674 15.0495 70.0324 14.0783C70.7626 12.1358 72.3749 9.79872 74.5956 9.79872H74.7173C75.8733 9.82907 76.8164 10.4058 76.8164 11.5591V11.6198C76.7555 13.7748 74.5348 16.4153 72.892 16.4153C72.5878 16.4153 72.2836 16.3243 72.0402 16.1118C71.9794 16.476 71.9186 16.8706 71.9186 17.2652C71.9186 18.4185 72.2532 19.6022 73.2571 19.8147L73.5917 19.845C73.7742 19.845 74.0176 19.8147 74.261 19.754C75.3257 19.3594 76.8468 18.0543 78.7633 14.0783C78.8241 13.9569 78.9154 13.8962 79.0067 13.8962C79.0675 13.8962 79.1284 13.9265 79.1892 13.9569C79.2805 13.9872 79.3413 14.0783 79.3413 14.1997C79.3413 14.1997 79.3413 14.2604 79.3109 14.3211C77.2727 18.5703 75.5995 19.9361 74.3827 20.361C73.9872 20.4824 73.6221 20.5128 73.3179 20.5128Z" fill="white"/>
<path d="M83.3312 20.5128H83.027C82.2969 20.5128 81.2322 20.4824 80.8671 19.7843C80.715 19.4808 80.6237 19.0559 80.6237 18.5703C80.6237 16.2939 82.1448 12.5304 82.6924 10.8914C82.2969 10.9217 81.7493 11.0735 81.2322 11.0735C81.0801 11.0735 80.8975 11.0735 80.7454 11.0128C80.2891 12.1965 80.0153 12.8035 79.3156 14.3211C79.2852 14.4121 79.1635 14.5032 79.0723 14.5032C79.0114 14.5032 78.981 14.5032 78.9202 14.4728C78.8289 14.4425 78.7376 14.3818 78.7376 14.1997C78.7376 14.1693 78.7376 14.139 78.7681 14.0783C79.4982 12.4696 79.7111 11.984 80.2283 10.7396C79.9545 10.5272 79.8328 10.2236 79.8328 9.88977C79.8328 9.46486 79.9849 9.00958 80.137 8.61502C80.2283 8.3722 80.5629 8.28115 80.8671 8.28115C81.2322 8.28115 81.6276 8.40256 81.6276 8.64537L81.5972 8.73642C81.4755 9.16134 81.2322 9.85942 81.1409 10.0719C81.9623 10.0415 82.662 9.79872 83.3008 9.79872C84.0613 9.79872 84.8219 10.3754 84.9435 11.1645L84.974 11.377C84.974 11.8626 84.7306 12.5 84.396 13.4712C83.9092 14.8371 82.9358 17.5383 82.9358 19.0559L82.9966 19.5719C83.0574 19.845 83.1791 19.9361 83.3312 19.9361C83.7267 19.9361 84.3047 19.238 84.4568 18.9952C85.0348 18.1454 85.7953 16.6278 86.9513 14.0783C87.0122 13.9569 87.1034 13.8962 87.1947 13.8962C87.286 13.8962 87.3468 13.9265 87.4077 13.9569C87.4685 13.9872 87.5293 14.0783 87.5293 14.1997C87.5293 14.23 87.5293 14.2604 87.4989 14.3211C86.3429 16.901 85.5824 18.4489 84.974 19.3291C84.3047 20.3003 83.8788 20.5128 83.3312 20.5128Z" fill="white"/>
<path d="M93.1437 20.5431C92.0485 20.5431 91.288 20.3003 91.288 18.7827C91.3489 16.5671 93.0524 11.6502 93.0829 11.2859C93.0829 11.1949 93.0524 11.1342 92.9916 11.1342C92.9003 11.1342 92.7786 11.2252 92.6874 11.3163C91.2272 12.6214 89.1585 16.0208 88.611 16.9617C88.2459 18.2971 87.9417 19.5112 87.9113 20.2093C87.9113 20.4824 87.7592 20.5128 87.5158 20.5128H87.3637C86.6336 20.5128 85.6601 20.361 85.6297 19.6629C85.6297 18.115 87.4245 12.1358 88.1851 10.1629C88.2763 9.92013 88.5805 9.79872 88.9456 9.79872C89.6757 9.79872 90.6796 10.2236 90.6796 10.7093L90.6492 10.8307C90.4058 11.4073 89.4019 14.4121 89.3106 14.655C89.767 13.9872 90.2841 13.2284 90.8317 12.5304C91.7443 11.3466 93.022 9.79872 94.2997 9.79872C95.0602 9.79872 95.6991 10.254 95.6991 11.0735L95.6687 11.4377C95.2428 13.5319 93.7825 17.599 93.7825 19.3594C93.7825 19.7236 93.813 19.9058 93.9651 19.9058C94.7256 19.845 95.2732 18.8434 97.4027 14.0783C97.4635 13.9569 97.5548 13.8962 97.646 13.8962C97.8286 13.8962 97.9807 14.0176 97.9807 14.1997C97.9807 14.23 97.9807 14.2604 97.9502 14.3211C95.8208 19.147 95.1515 20.4521 93.9955 20.5128L93.1437 20.5431Z" fill="white"/>
<path d="M99.6158 18.2364C100.528 18.2061 102.171 15.0192 102.475 14.2604C102.627 13.8658 102.901 13.0463 102.901 12.3786C102.901 11.9537 102.78 11.6198 102.445 11.5288L102.262 11.4984C100.893 11.4984 99.1595 15.6262 99.1595 17.4169C99.1595 17.9329 99.3116 18.2364 99.6158 18.2364ZM104.149 20.5128H103.783C103.023 20.5128 102.232 20.4217 101.897 19.7843C101.715 19.4808 101.654 19.0256 101.654 18.5096C101.654 18.2061 101.684 17.9026 101.715 17.5383C101.015 18.7524 100.042 19.9361 98.8553 19.9361H98.7944C97.3342 19.9058 96.7258 18.6917 96.7258 17.1134C96.7258 14.1086 98.9161 9.82907 101.928 9.82907H101.958C102.749 9.82907 103.388 10.1022 103.753 10.6789L103.966 10.1326C104.118 9.88978 104.392 9.79872 104.757 9.79872C105.457 9.79872 106.4 10.2236 106.4 10.7093L106.369 10.8307C105.974 11.8019 103.996 17.0224 103.936 19.2077C103.936 19.6326 103.966 19.9058 104.118 19.9058C105.122 19.8754 107.039 15.9904 107.921 14.0783C107.982 13.9265 108.073 13.8962 108.195 13.8962L108.347 13.9265C108.438 13.9569 108.499 14.0479 108.499 14.1693C108.499 14.23 108.499 14.23 108.468 14.3211C107.464 16.476 105.578 20.4521 104.149 20.5128Z" fill="white"/>
<path d="M109.524 20.5128H109.068C108.338 20.5128 107.638 20.4217 107.364 19.7843C107.212 19.4505 107.121 18.9649 107.121 18.4185C107.121 16.0511 108.368 12.1054 109.494 9.07029C108.885 9.03994 108.307 9.03994 107.82 9.03994C107.638 9.00958 107.516 8.85783 107.516 8.73642C107.516 8.58466 107.638 8.43291 107.82 8.43291L109.707 8.46326C110.102 7.43131 110.467 6.55112 110.771 5.88339C110.863 5.61022 111.167 5.51917 111.532 5.51917C112.323 5.51917 113.418 6.00479 113.418 6.46006L113.388 6.55112C113.114 7.15815 112.84 7.82588 112.566 8.55431L114.087 8.58466C114.27 8.58466 114.391 8.73642 114.391 8.88818C114.391 9.03994 114.27 9.19169 114.057 9.19169C113.54 9.16134 112.962 9.16134 112.323 9.16134C111.38 11.9537 110.345 15.0799 109.737 17.6597C109.676 17.8419 109.402 19.0863 109.402 19.6326C109.402 19.845 109.433 19.9058 109.524 19.9058C109.859 19.9058 110.437 19.1773 110.65 18.9042C111.593 17.6294 112.688 15.3834 113.296 14.0783C113.357 13.9265 113.448 13.8962 113.57 13.8962C113.6 13.8962 113.661 13.8962 113.722 13.9265C113.813 13.9872 113.874 14.0783 113.874 14.1997C113.874 14.1997 113.874 14.2604 113.844 14.3211C113.205 15.778 112.079 18.024 111.045 19.3898C110.68 19.8147 110.102 20.4824 109.524 20.5128Z" fill="white"/>
<path d="M114.902 20.5128H114.506C113.746 20.5128 112.955 20.4217 112.62 19.7843C112.438 19.4808 112.347 18.9952 112.347 18.4489C112.347 17.8115 112.468 17.0527 112.62 16.2636C113.107 13.9872 114.111 11.2859 114.567 10.1629C114.689 9.92013 114.993 9.79872 115.328 9.79872C116.058 9.79872 117.001 10.254 117.001 10.7093L116.971 10.8307C116.727 11.4984 114.598 17.5383 114.598 19.3898C114.598 19.7236 114.659 19.9058 114.841 19.9058C115.845 19.8754 117.731 15.9904 118.583 14.0783C118.644 13.9265 118.735 13.8962 118.857 13.8962L119.009 13.9265C119.1 13.9569 119.161 14.0479 119.161 14.1693C119.161 14.23 119.161 14.2604 119.13 14.3211C118.157 16.476 116.301 20.4521 114.902 20.5128ZM117.123 8.67572C116.514 8.67572 115.632 8.3115 115.632 7.91693C115.632 7.43131 115.997 6.2476 116.18 5.85304C116.271 5.57987 116.545 5.48882 116.879 5.48882C117.579 5.48882 118.492 5.97444 118.492 6.42971C118.492 6.49042 118.492 6.58147 118.431 6.64217C118.279 6.91534 117.853 8.00799 117.64 8.46326C117.579 8.61502 117.366 8.67572 117.123 8.67572Z" fill="white"/>
<path d="M120.889 19.5719C122.075 19.5719 123.262 16.6278 123.596 15.6869C123.11 15.3227 122.927 14.7764 122.927 14.2604C122.927 13.3802 123.475 12.5 124.053 12.3482C123.961 11.9537 123.779 11.6502 123.383 11.6502H123.231C121.771 11.893 120.159 16.0208 120.159 18.2061C120.159 18.9649 120.341 19.5112 120.798 19.5719H120.889ZM120.676 20.5128C118.759 20.5128 117.969 18.9649 117.969 17.0224C117.969 13.8962 120.068 9.79872 122.897 9.79872C123.14 9.79872 123.383 9.82907 123.657 9.88977C125.117 10.254 125.543 11.6198 125.543 13.0463C125.543 13.9265 125.361 14.8674 125.148 15.5655C126.152 15.5655 127.247 15.0495 127.764 14.0479C127.825 13.9265 127.916 13.8962 128.007 13.8962C128.068 13.8962 128.129 13.9265 128.19 13.9569C128.281 13.9872 128.312 14.0783 128.312 14.1693C128.312 14.23 128.312 14.2907 128.281 14.3514C127.673 15.5048 126.395 16.1725 125.178 16.1725H124.935C124.266 18.0847 122.775 20.5128 120.676 20.5128Z" fill="white"/>
<path d="M133.963 20.5431C132.868 20.5431 132.107 20.3003 132.107 18.7827C132.168 16.5671 133.871 11.6502 133.902 11.2859C133.902 11.1949 133.871 11.1342 133.811 11.1342C133.719 11.1342 133.598 11.2252 133.506 11.3163C132.046 12.6214 129.977 16.0208 129.43 16.9617C129.065 18.2971 128.761 19.5112 128.73 20.2093C128.73 20.4824 128.578 20.5128 128.335 20.5128H128.183C127.453 20.5128 126.479 20.361 126.449 19.6629C126.449 18.115 128.243 12.1358 129.004 10.1629C129.095 9.92013 129.399 9.79872 129.765 9.79872C130.495 9.79872 131.499 10.2236 131.499 10.7093L131.468 10.8307C131.225 11.4073 130.221 14.4121 130.13 14.655C130.586 13.9872 131.103 13.2284 131.651 12.5304C132.563 11.3466 133.841 9.79872 135.119 9.79872C135.879 9.79872 136.518 10.254 136.518 11.0735L136.488 11.4377C136.062 13.5319 134.602 17.599 134.602 19.3594C134.602 19.7236 134.632 19.9058 134.784 19.9058C135.545 19.845 136.092 18.8434 138.222 14.0783C138.282 13.9569 138.374 13.8962 138.465 13.8962C138.648 13.8962 138.8 14.0176 138.8 14.1997C138.8 14.23 138.8 14.2604 138.769 14.3211C136.64 19.147 135.97 20.4521 134.814 20.5128L133.963 20.5431Z" fill="white"/>
<path d="M140.435 18.2364C141.347 18.2061 142.99 15.0192 143.294 14.2604C143.446 13.8658 143.72 13.0463 143.72 12.3786C143.72 11.9537 143.599 11.6198 143.264 11.5288L143.081 11.4984C141.712 11.4984 139.978 15.6262 139.978 17.4169C139.978 17.9329 140.131 18.2364 140.435 18.2364ZM144.968 20.5128H144.602C143.842 20.5128 143.051 20.4217 142.716 19.7843C142.534 19.4808 142.473 19.0256 142.473 18.5096C142.473 18.2061 142.503 17.9026 142.534 17.5383C141.834 18.7524 140.861 19.9361 139.674 19.9361H139.613C138.153 19.9058 137.545 18.6917 137.545 17.1134C137.545 14.1086 139.735 9.82907 142.747 9.82907H142.777C143.568 9.82907 144.207 10.1022 144.572 10.6789L144.785 10.1326C144.937 9.88978 145.211 9.79872 145.576 9.79872C146.276 9.79872 147.219 10.2236 147.219 10.7093L147.188 10.8307C146.793 11.8019 144.815 17.0224 144.755 19.2077C144.755 19.6326 144.785 19.9058 144.937 19.9058C145.941 19.8754 147.858 15.9904 148.74 14.0783C148.801 13.9265 148.892 13.8962 149.014 13.8962L149.166 13.9265C149.257 13.9569 149.318 14.0479 149.318 14.1693C149.318 14.23 149.318 14.23 149.287 14.3211C148.283 16.476 146.397 20.4521 144.968 20.5128Z" fill="white"/>
<path d="M150.191 20.5735C149.339 20.5735 148.457 20.5431 148.122 19.8147C147.97 19.4808 147.909 19.0559 147.909 18.5096C147.909 14.8371 151.043 7.06709 151.529 5.94409C151.682 5.67093 152.016 5.57987 152.351 5.57987C153.142 5.57987 154.115 6.09585 154.115 6.49041V6.58147C153.75 7.58307 150.556 15.9297 150.221 19.0559L150.191 19.6326C150.191 19.845 150.191 19.9361 150.252 19.9665C150.313 19.9665 150.373 20.1182 150.373 20.27C150.373 20.3914 150.343 20.5735 150.191 20.5735Z" fill="white"/>
<path d="M166.473 22H166.412C163.614 22 161.119 20.1789 161.119 16.2939C161.119 11.1038 165.439 3.09105 171.219 3.03035C173.957 3.03035 175.234 4.57827 175.234 6.76358C175.234 9.3738 173.318 13.107 171.645 14.23C171.371 14.4121 171.036 14.5032 170.641 14.5032C169.637 14.5032 168.359 13.8962 168.268 13.2284C168.268 13.0463 168.39 12.9249 168.572 12.9249C170.245 12.7732 173.561 7.88658 173.561 5.67093C173.561 4.94249 173.135 4.63898 172.496 4.63898C172.253 4.63898 172.04 4.69968 171.827 4.73003C167.933 5.54952 164.222 13.3195 164.222 17.7811C164.222 19.5719 164.891 20.5431 166.625 20.5735C170.032 20.5735 173.622 16.6278 175.356 14.0479C175.417 13.9569 175.539 13.8962 175.63 13.8962C175.812 13.9265 175.934 13.9872 175.934 14.1997L175.904 14.3211C174.322 18.1757 171.006 22 166.473 22Z" fill="white"/>
<path d="M177.691 19.5719C178.877 19.5719 180.064 16.6278 180.398 15.6869C179.912 15.3227 179.729 14.7764 179.729 14.2604C179.729 13.3802 180.277 12.5 180.855 12.3482C180.763 11.9537 180.581 11.6502 180.185 11.6502H180.033C178.573 11.893 176.961 16.0208 176.961 18.2061C176.961 18.9649 177.143 19.5112 177.6 19.5719H177.691ZM177.478 20.5128C175.561 20.5128 174.77 18.9649 174.77 17.0224C174.77 13.8962 176.87 9.79872 179.699 9.79872C179.942 9.79872 180.185 9.82907 180.459 9.88977C181.919 10.254 182.345 11.6198 182.345 13.0463C182.345 13.9265 182.163 14.8674 181.95 15.5655C182.954 15.5655 184.049 15.0495 184.566 14.0479C184.627 13.9265 184.718 13.8962 184.809 13.8962C184.87 13.8962 184.931 13.9265 184.992 13.9569C185.083 13.9872 185.114 14.0783 185.114 14.1693C185.114 14.23 185.114 14.2907 185.083 14.3514C184.475 15.5048 183.197 16.1725 181.98 16.1725H181.737C181.068 18.0847 179.577 20.5128 177.478 20.5128Z" fill="white"/>
<path d="M190.765 20.5431C189.669 20.5431 188.909 20.3003 188.909 18.7827C188.97 16.5671 190.673 11.6502 190.704 11.2859C190.704 11.1949 190.673 11.1342 190.612 11.1342C190.521 11.1342 190.4 11.2252 190.308 11.3163C188.848 12.6214 186.779 16.0208 186.232 16.9617C185.867 18.2971 185.563 19.5112 185.532 20.2093C185.532 20.4824 185.38 20.5128 185.137 20.5128H184.985C184.254 20.5128 183.281 20.361 183.251 19.6629C183.251 18.115 185.045 12.1358 185.806 10.1629C185.897 9.92013 186.201 9.79872 186.566 9.79872C187.297 9.79872 188.3 10.2236 188.3 10.7093L188.27 10.8307C188.027 11.4073 187.023 14.4121 186.932 14.655C187.388 13.9872 187.905 13.2284 188.453 12.5304C189.365 11.3466 190.643 9.79872 191.921 9.79872C192.681 9.79872 193.32 10.254 193.32 11.0735L193.29 11.4377C192.864 13.5319 191.403 17.599 191.403 19.3594C191.403 19.7236 191.434 19.9058 191.586 19.9058C192.346 19.845 192.894 18.8434 195.024 14.0783C195.084 13.9569 195.176 13.8962 195.267 13.8962C195.449 13.8962 195.602 14.0176 195.602 14.1997C195.602 14.23 195.602 14.2604 195.571 14.3211C193.442 19.147 192.772 20.4521 191.616 20.5128L190.765 20.5431Z" fill="white"/>
<path d="M196.628 20.5128H196.172C195.442 20.5128 194.742 20.4217 194.468 19.7843C194.316 19.4505 194.225 18.9649 194.225 18.4185C194.225 16.0511 195.472 12.1054 196.598 9.07029C195.989 9.03994 195.411 9.03994 194.925 9.03994C194.742 9.00958 194.62 8.85783 194.62 8.73642C194.62 8.58466 194.742 8.43291 194.925 8.43291L196.811 8.46326C197.206 7.43131 197.571 6.55112 197.876 5.88339C197.967 5.61022 198.271 5.51917 198.636 5.51917C199.427 5.51917 200.522 6.00479 200.522 6.46006L200.492 6.55112C200.218 7.15815 199.944 7.82588 199.67 8.55431L201.191 8.58466C201.374 8.58466 201.496 8.73642 201.496 8.88818C201.496 9.03994 201.374 9.19169 201.161 9.19169C200.644 9.16134 200.066 9.16134 199.427 9.16134C198.484 11.9537 197.45 15.0799 196.841 17.6597C196.78 17.8419 196.507 19.0863 196.507 19.6326C196.507 19.845 196.537 19.9058 196.628 19.9058C196.963 19.9058 197.541 19.1773 197.754 18.9042C198.697 17.6294 199.792 15.3834 200.4 14.0783C200.461 13.9265 200.553 13.8962 200.674 13.8962C200.705 13.8962 200.766 13.8962 200.826 13.9265C200.918 13.9872 200.978 14.0783 200.978 14.1997C200.978 14.1997 200.978 14.2604 200.948 14.3211C200.309 15.778 199.184 18.024 198.149 19.3898C197.784 19.8147 197.206 20.4824 196.628 20.5128Z" fill="white"/>
<path d="M204.927 20.5128H204.622C203.892 20.5128 202.828 20.4824 202.462 19.7843C202.31 19.4808 202.219 19.0559 202.219 18.5703C202.219 16.2939 203.74 12.5304 204.288 10.8914C203.892 10.9217 203.345 11.0735 202.828 11.0735C202.675 11.0735 202.493 11.0735 202.341 11.0128C201.884 12.1965 201.611 12.8035 200.911 14.3211C200.881 14.4121 200.759 14.5032 200.668 14.5032C200.607 14.5032 200.576 14.5032 200.516 14.4728C200.424 14.4425 200.333 14.3818 200.333 14.1997C200.333 14.1693 200.333 14.139 200.363 14.0783C201.094 12.4696 201.306 11.984 201.824 10.7396C201.55 10.5272 201.428 10.2236 201.428 9.88977C201.428 9.46486 201.58 9.00958 201.732 8.61502C201.824 8.3722 202.158 8.28115 202.462 8.28115C202.828 8.28115 203.223 8.40256 203.223 8.64537L203.193 8.73642C203.071 9.16134 202.828 9.85942 202.736 10.0719C203.558 10.0415 204.257 9.79872 204.896 9.79872C205.657 9.79872 206.417 10.3754 206.539 11.1645L206.569 11.377C206.569 11.8626 206.326 12.5 205.991 13.4712C205.505 14.8371 204.531 17.5383 204.531 19.0559L204.592 19.5719C204.653 19.845 204.774 19.9361 204.927 19.9361C205.322 19.9361 205.9 19.238 206.052 18.9952C206.63 18.1454 207.391 16.6278 208.547 14.0783C208.608 13.9569 208.699 13.8962 208.79 13.8962C208.881 13.8962 208.942 13.9265 209.003 13.9569C209.064 13.9872 209.125 14.0783 209.125 14.1997C209.125 14.23 209.125 14.2604 209.094 14.3211C207.938 16.901 207.178 18.4489 206.569 19.3291C205.9 20.3003 205.474 20.5128 204.927 20.5128Z" fill="white"/>
<path d="M210.754 18.2364C211.667 18.2061 213.309 15.0192 213.613 14.2604C213.766 13.8658 214.039 13.0463 214.039 12.3786C214.039 11.9537 213.918 11.6198 213.583 11.5288L213.4 11.4984C212.032 11.4984 210.298 15.6262 210.298 17.4169C210.298 17.9329 210.45 18.2364 210.754 18.2364ZM215.287 20.5128H214.922C214.161 20.5128 213.37 20.4217 213.035 19.7843C212.853 19.4808 212.792 19.0256 212.792 18.5096C212.792 18.2061 212.823 17.9026 212.853 17.5383C212.153 18.7524 211.18 19.9361 209.993 19.9361H209.932C208.472 19.9058 207.864 18.6917 207.864 17.1134C207.864 14.1086 210.054 9.82907 213.066 9.82907H213.096C213.887 9.82907 214.526 10.1022 214.891 10.6789L215.104 10.1326C215.256 9.88978 215.53 9.79872 215.895 9.79872C216.595 9.79872 217.538 10.2236 217.538 10.7093L217.507 10.8307C217.112 11.8019 215.135 17.0224 215.074 19.2077C215.074 19.6326 215.104 19.9058 215.256 19.9058C216.26 19.8754 218.177 15.9904 219.059 14.0783C219.12 13.9265 219.211 13.8962 219.333 13.8962L219.485 13.9265C219.576 13.9569 219.637 14.0479 219.637 14.1693C219.637 14.23 219.637 14.23 219.606 14.3211C218.603 16.476 216.716 20.4521 215.287 20.5128Z" fill="white"/>
<path d="M222.274 20.5128H221.94C219.354 20.4217 218.411 18.9042 218.411 16.992C218.411 16.0511 218.624 15.0495 218.989 14.0783C219.749 12.1054 221.362 9.79872 223.583 9.79872C223.796 9.79872 224.039 9.82907 224.252 9.85943C225.469 10.1022 225.925 10.9824 225.925 11.8626C225.925 12.4393 225.712 13.0463 225.377 13.4409C225.134 13.7141 224.86 13.8658 224.556 13.8658C224.374 13.8658 224.161 13.8051 223.978 13.6837C223.887 13.623 223.856 13.5319 223.856 13.4105C223.856 13.3802 223.856 13.3195 223.887 13.2891C224.008 13.0767 224.617 12.0447 224.617 11.5591C224.617 11.4073 224.556 11.3163 224.434 11.2859H224.343C223.491 11.2859 221.757 13.4105 221.149 15.6869C220.997 16.1422 220.906 16.7492 220.906 17.3562C220.906 18.4185 221.21 19.4808 222.092 19.7843C222.244 19.8147 222.396 19.845 222.548 19.845C222.761 19.845 222.974 19.8147 223.218 19.754C224.313 19.3594 225.834 18.0543 227.75 14.0783C227.811 13.9265 227.902 13.8962 227.994 13.8962C228.085 13.8962 228.146 13.9265 228.146 13.9265C228.237 13.9872 228.298 14.0783 228.298 14.1997C228.298 14.1997 228.298 14.2604 228.267 14.3211C226.26 18.5399 224.586 19.9058 223.37 20.3307C222.944 20.4824 222.579 20.5128 222.274 20.5128Z" fill="white"/>
<path d="M229.367 20.5128H228.91C228.18 20.5128 227.48 20.4217 227.207 19.7843C227.055 19.4505 226.963 18.9649 226.963 18.4185C226.963 16.0511 228.211 12.1054 229.336 9.07029C228.728 9.03994 228.15 9.03994 227.663 9.03994C227.481 9.00958 227.359 8.85783 227.359 8.73642C227.359 8.58466 227.481 8.43291 227.663 8.43291L229.549 8.46326C229.945 7.43131 230.31 6.55112 230.614 5.88339C230.705 5.61022 231.009 5.51917 231.374 5.51917C232.165 5.51917 233.261 6.00479 233.261 6.46006L233.23 6.55112C232.956 7.15815 232.683 7.82588 232.409 8.55431L233.93 8.58466C234.112 8.58466 234.234 8.73642 234.234 8.88818C234.234 9.03994 234.112 9.19169 233.899 9.19169C233.382 9.16134 232.804 9.16134 232.165 9.16134C231.222 11.9537 230.188 15.0799 229.58 17.6597C229.519 17.8419 229.245 19.0863 229.245 19.6326C229.245 19.845 229.275 19.9058 229.367 19.9058C229.701 19.9058 230.279 19.1773 230.492 18.9042C231.435 17.6294 232.53 15.3834 233.139 14.0783C233.2 13.9265 233.291 13.8962 233.413 13.8962C233.443 13.8962 233.504 13.8962 233.565 13.9265C233.656 13.9872 233.717 14.0783 233.717 14.1997C233.717 14.1997 233.717 14.2604 233.686 14.3211C233.048 15.778 231.922 18.024 230.888 19.3898C230.523 19.8147 229.945 20.4824 229.367 20.5128Z" fill="white"/>
<path d="M235.475 19.5719C236.661 19.5719 237.847 16.5974 238.152 15.6565C237.665 15.2923 237.482 14.746 237.482 14.23C237.482 13.3498 238.03 12.5 238.608 12.3179C238.517 11.9537 238.365 11.6502 237.939 11.6502C236.387 11.7716 234.744 15.7476 234.744 18.2061C234.744 19.1166 234.957 19.5415 235.475 19.5719ZM235.231 20.5128C233.315 20.5128 232.524 18.9649 232.524 17.0224C232.524 13.8962 234.623 9.76837 237.452 9.76837C237.695 9.76837 237.969 9.79872 238.212 9.85943C239.673 10.254 240.099 11.5288 240.099 12.9249C240.099 13.8051 239.916 14.7764 239.703 15.5655H239.734C241.589 15.5655 242.989 12.1965 243.506 10.7396C243.232 10.5272 243.141 10.2236 243.141 9.88977C243.141 9.46486 243.293 9.00958 243.445 8.58466C243.536 8.3722 243.84 8.28115 244.175 8.28115C244.54 8.28115 244.905 8.40256 244.905 8.64537V8.73642L244.449 10.0719C245.209 10.0415 245.879 9.79872 246.487 9.79872C247.461 9.82907 248.16 10.3147 248.282 11.377C248.282 12.5304 246.244 16.6278 246.244 19.0559C246.305 19.6326 246.305 19.9361 246.639 19.9361C247.035 19.9361 247.613 19.238 247.765 18.9952C248.343 18.1454 249.103 16.6278 250.259 14.0479C250.32 13.9265 250.411 13.8962 250.503 13.8962C250.655 13.8962 250.837 14.0176 250.837 14.1997C250.837 14.1997 250.837 14.2604 250.807 14.3211C248.434 19.6022 247.704 20.4824 246.67 20.4824H246.305C245.574 20.4824 244.51 20.4521 244.175 19.7843C243.993 19.4808 243.932 19.0559 243.932 18.5399C243.932 16.2636 245.453 12.4696 246 10.861C245.544 10.9217 244.966 11.0735 244.479 11.0735L244.053 11.0128C243.293 12.8946 242.015 16.1422 239.764 16.1422H239.521C238.821 18.0543 237.33 20.5128 235.231 20.5128Z" fill="white"/>
<path d="M251.855 20.5128H251.581C249.786 20.5128 248.935 19.3594 248.935 18.0543C248.935 17.3562 249.178 16.6278 249.634 15.9904C249.786 15.778 250.03 15.6869 250.273 15.6869C250.973 15.6869 251.855 16.3243 251.855 16.7492C251.855 16.8099 251.825 16.901 251.733 16.9617C251.247 17.3562 250.821 18.4185 250.821 19.0559C250.821 19.2987 250.881 19.4505 251.003 19.5415C251.064 19.6022 251.125 19.6022 251.186 19.6022C251.368 19.6022 251.581 19.4505 251.733 19.2684C252.159 18.722 252.281 17.9633 252.281 17.1134C252.281 15.6565 251.916 13.9569 251.916 12.6214C251.916 12.4089 251.916 12.1965 251.946 11.984L250.851 14.3514C250.79 14.4425 250.669 14.5032 250.577 14.5032C250.516 14.5032 250.486 14.5032 250.425 14.4728C250.364 14.4425 250.273 14.4121 250.273 14.2604C250.273 14.1997 250.273 14.1086 250.303 14.0479C250.547 13.5016 252.129 9.79872 252.707 9.79872H254.958C255.14 9.79872 255.262 9.92013 255.262 10.0719C255.262 10.1326 255.262 10.2236 255.201 10.2843C254.654 11.1038 254.471 11.9233 254.471 12.7125C254.471 13.9872 254.897 15.262 254.897 16.5671C254.897 16.8706 254.867 17.1741 254.806 17.4776C254.654 18.1757 254.471 18.722 254.197 19.147C254.593 18.722 255.232 17.9026 255.718 17.1741C256.236 16.3546 256.814 15.353 257.422 14.0479C257.483 13.9265 257.574 13.8962 257.696 13.8962C257.726 13.8962 257.787 13.8962 257.848 13.9265C257.939 13.9872 258 14.0783 258 14.1997L257.97 14.3211C257.422 15.4744 256.814 16.5974 256.175 17.5687C255.718 18.2668 255.262 18.8738 254.745 19.4505C253.832 20.4521 252.768 20.5128 251.855 20.5128Z" fill="white"/>
</svg>
