<svg width="20" height="15" viewBox="0 0 20 15" fill="none" xmlns="http://www.w3.org/2000/svg">
<path d="M20 2.14073C19.9999 1.57299 19.7744 1.02852 19.3729 0.627072C18.9715 0.22562 18.427 6.0549e-05 17.8593 0H2.14073C1.57299 6.0549e-05 1.02852 0.22562 0.627072 0.627072C0.22562 1.02852 6.0549e-05 1.57299 0 2.14073V12.1308C6.0549e-05 12.6985 0.22562 13.243 0.627072 13.6445C1.02852 14.0459 1.57299 14.2715 2.14073 14.2715H17.8593C18.427 14.2715 18.9715 14.0459 19.3729 13.6445C19.7744 13.243 19.9999 12.6985 20 12.1308V2.14073ZM18.5728 2.14073V12.1308C18.5728 12.32 18.4977 12.5016 18.3638 12.6354C18.23 12.7692 18.0485 12.8444 17.8593 12.8444H2.14073C1.95148 12.8444 1.76998 12.7692 1.63615 12.6354C1.50233 12.5016 1.42715 12.32 1.42715 12.1308V2.14073C1.42715 1.95148 1.50233 1.76998 1.63615 1.63615C1.76998 1.50233 1.95148 1.42715 2.14073 1.42715H17.8593C18.0485 1.42715 18.23 1.50233 18.3638 1.63615C18.4977 1.76998 18.5728 1.95148 18.5728 2.14073Z" fill="#025196"/>
<path d="M1.30946 1.58622L8.52926 8.49181C8.92761 8.8729 9.45764 9.0856 10.0089 9.0856C10.5602 9.0856 11.0902 8.8729 11.4886 8.49181L18.7084 1.58622C18.845 1.4553 18.9241 1.27551 18.9283 1.08632C18.9325 0.897132 18.8615 0.714012 18.7308 0.577164C18.5999 0.440527 18.4201 0.361427 18.2309 0.357231C18.0417 0.353036 17.8586 0.424087 17.7217 0.554786L10.5022 7.46061C10.3694 7.58767 10.1927 7.65859 10.0089 7.65859C9.82516 7.65859 9.64847 7.58767 9.51571 7.46061L2.29614 0.554786C2.15929 0.424087 1.97617 0.353036 1.78698 0.357231C1.5978 0.361427 1.41801 0.440527 1.28709 0.577164C1.15639 0.714012 1.08534 0.897132 1.08953 1.08632C1.09373 1.27551 1.17283 1.4553 1.30946 1.58622Z" fill="#025196"/>
<path d="M6.63754 6.325L0.796953 12.4729C0.670982 12.611 0.60415 12.7929 0.610805 12.9796C0.61746 13.1663 0.697073 13.343 0.832548 13.4717C0.968023 13.6004 1.14856 13.6708 1.33539 13.6679C1.52222 13.6649 1.70045 13.5889 1.83181 13.456L7.6724 7.3078C7.79727 7.16961 7.86317 6.98809 7.85606 6.80198C7.84895 6.61587 7.76937 6.43991 7.63432 6.31165C7.49928 6.1834 7.31945 6.11301 7.13322 6.1155C6.94699 6.11799 6.76911 6.19318 6.63754 6.325ZM11.9895 7.3078L18.0548 13.6925C18.1861 13.8254 18.3643 13.9015 18.5512 13.9044C18.738 13.9074 18.9185 13.837 19.054 13.7083C19.1895 13.5796 19.2691 13.4029 19.2758 13.2162C19.2824 13.0294 19.2156 12.8475 19.0896 12.7095L13.0241 6.325C12.8938 6.18782 12.7143 6.10802 12.5251 6.10314C12.3359 6.09826 12.1525 6.1687 12.0153 6.29897C11.8782 6.42939 11.7985 6.60889 11.7936 6.79804C11.7888 6.9872 11.8592 7.17054 11.9895 7.3078Z" fill="#025196"/>
</svg>
