<svg width="22" height="22" viewBox="0 0 22 22" fill="none" xmlns="http://www.w3.org/2000/svg">
<path d="M8.71233 13.5082C10.7771 15.569 13.3732 16.2197 13.3732 16.2197L15.6499 13.8564C16.4246 13.0832 17.3137 13.254 18.4577 13.8469L19.6642 14.5245C20.4842 14.9851 21.002 15.8503 21 16.7909L20.9999 16.8129C20.9945 17.5263 20.7034 18.3382 19.9831 19.0585C18.2252 20.8165 15.8175 21.1095 13.8393 21.0921C10.501 21.0626 7.5175 18.923 5.32262 16.7281C3.12774 14.5332 1.03024 11.5921 1.00075 8.25385C0.983247 6.27553 1.26252 3.86799 3.02046 2.11001C3.74077 1.3897 4.55273 1.0986 5.26614 1.09322L5.28817 1.09314C6.22873 1.09119 7.09387 1.60892 7.55449 2.42898L8.23213 3.63538C8.74059 4.69466 8.99579 5.66856 8.2226 6.44324L5.94408 8.80502C5.94408 8.80502 6.65155 11.4435 8.71233 13.5082Z" stroke="#025196" stroke-width="1.5" stroke-miterlimit="10" stroke-linecap="round"/>
<path d="M21.0004 10.415C21.0004 5.2668 16.827 1.09335 11.6787 1.09335" stroke="#025196" stroke-width="1.5" stroke-miterlimit="10"/>
<path d="M14.221 10.415C14.221 9.01098 13.0828 7.87276 11.6787 7.87276" stroke="#025196" stroke-width="1.5" stroke-miterlimit="10"/>
<path d="M17.6107 10.415C17.6107 7.13889 14.9549 4.48305 11.6787 4.48305" stroke="#025196" stroke-width="1.5" stroke-miterlimit="10"/>
</svg>
