<svg width="20" height="25" viewBox="0 0 20 25" fill="none" xmlns="http://www.w3.org/2000/svg">
<path d="M10 24.2247C9.88928 24.2252 9.77957 24.2036 9.67731 24.1612C9.57505 24.1187 9.4823 24.0563 9.4045 23.9775L2.93259 17.5056C1.53303 16.1075 0.579597 14.3257 0.192908 12.3856C-0.193781 10.4455 0.00364874 8.43432 0.760221 6.60646C1.51679 4.77859 2.79851 3.2162 4.44323 2.11693C6.08794 1.01766 8.02175 0.430908 10 0.430908C11.9783 0.430908 13.9121 1.01766 15.5568 2.11693C17.2015 3.2162 18.4832 4.77859 19.2398 6.60646C19.9964 8.43432 20.1938 10.4455 19.8071 12.3856C19.4204 14.3257 18.467 16.1075 17.0674 17.5056L10.5955 23.9775C10.5177 24.0563 10.425 24.1187 10.3227 24.1612C10.2204 24.2036 10.1107 24.2252 10 24.2247ZM10 2.1236C8.35637 2.12475 6.74996 2.61302 5.3837 3.52672C4.01744 4.44042 2.95263 5.73855 2.3238 7.25713C1.69497 8.77571 1.53032 10.4466 1.85066 12.0587C2.171 13.6708 2.96195 15.1518 4.1236 16.3146L10 22.191L15.8764 16.3146C17.038 15.1518 17.829 13.6708 18.1493 12.0587C18.4697 10.4466 18.305 8.77571 17.6762 7.25713C17.0474 5.73855 15.9826 4.44042 14.6163 3.52672C13.25 2.61302 11.6436 2.12475 10 2.1236Z" fill="#025196"/>
<path d="M9.99962 14.146C9.16627 14.146 8.35163 13.8988 7.65873 13.4359C6.96583 12.9729 6.42578 12.3148 6.10687 11.5449C5.78796 10.775 5.70452 9.9278 5.8671 9.11047C6.02967 8.29313 6.43097 7.54236 7.02023 6.9531C7.6095 6.36383 8.36027 5.96254 9.17761 5.79996C9.99494 5.63738 10.8421 5.72082 11.612 6.03973C12.382 6.35864 13.04 6.89869 13.503 7.59159C13.966 8.2845 14.2131 9.09913 14.2131 9.93248C14.2131 11.05 13.7692 12.1217 12.979 12.9119C12.1888 13.702 11.1171 14.146 9.99962 14.146ZM9.99962 7.40439C9.49961 7.40439 9.01083 7.55266 8.59508 7.83045C8.17934 8.10824 7.85531 8.50307 7.66397 8.96502C7.47262 9.42697 7.42256 9.93528 7.5201 10.4257C7.61765 10.9161 7.85843 11.3665 8.21199 11.7201C8.56555 12.0737 9.01601 12.3144 9.50641 12.412C9.99681 12.5095 10.5051 12.4595 10.9671 12.2681C11.429 12.0768 11.8239 11.7528 12.1016 11.337C12.3794 10.9213 12.5277 10.4325 12.5277 9.93248C12.5277 9.26199 12.2614 8.61896 11.7872 8.14485C11.3131 7.67074 10.6701 7.40439 9.99962 7.40439Z" fill="#025196"/>
</svg>
