<svg width="118" height="146" viewBox="0 0 118 146" fill="none" xmlns="http://www.w3.org/2000/svg">
<path d="M17.7222 99.6632C22.1961 103.97 57.2173 130.653 99.6123 99.8154C99.6699 99.7623 99.7374 99.721 99.811 99.6941C99.8845 99.6672 99.9627 99.6551 100.041 99.6585C100.119 99.6619 100.196 99.6808 100.267 99.7141C100.338 99.7474 100.402 99.7943 100.454 99.8523L107.354 108.564C107.451 108.678 107.501 108.824 107.494 108.974C107.488 109.123 107.425 109.265 107.318 109.37C97.2465 116.827 64.5296 161.932 9.99147 108.388C9.93277 108.329 9.8869 108.259 9.85679 108.182C9.82667 108.105 9.81299 108.023 9.81661 107.94C9.82023 107.858 9.84108 107.777 9.87782 107.703C9.91455 107.629 9.96637 107.563 10.0299 107.51L16.9808 99.6367C17.0862 99.5495 17.2199 99.504 17.3566 99.5089C17.4932 99.5138 17.6233 99.5687 17.7222 99.6632Z" fill="white"/>
<path d="M25.1969 93.4124C29.2857 97.1556 59.5009 122.507 93.1988 92.3961C93.2709 92.3283 93.3559 92.2757 93.4487 92.2412C93.5415 92.2068 93.6403 92.1913 93.7391 92.1956C93.838 92.2 93.9351 92.224 94.0245 92.2665C94.114 92.3089 94.194 92.3688 94.2599 92.4426L99.7672 99.0574C99.8927 99.1992 99.9582 99.3842 99.9499 99.5733C99.9417 99.7625 99.8602 99.941 99.7227 100.071C94.8989 104.558 56.3877 137.968 17.7514 100.119C17.6778 100.045 17.6203 99.9565 17.5826 99.8592C17.5449 99.762 17.5278 99.658 17.5324 99.5538C17.5369 99.4496 17.5631 99.3474 17.6091 99.2539C17.6552 99.1603 17.7202 99.0773 17.8 99.0101L24.2306 93.3701C24.368 93.2555 24.5432 93.1963 24.722 93.2041C24.9007 93.212 25.0701 93.2862 25.1969 93.4124Z" fill="#F43021"/>
<path d="M9.95887 108.618C14.4328 112.925 60.3176 153.848 107.053 109.246C107.111 109.192 107.178 109.151 107.252 109.124C107.325 109.097 107.403 109.085 107.482 109.089C107.56 109.092 107.637 109.111 107.708 109.144C107.779 109.178 107.842 109.225 107.895 109.283L117.17 118.469C117.267 118.583 117.317 118.73 117.311 118.879C117.304 119.029 117.241 119.17 117.135 119.275C107.063 126.732 55.816 170.412 1.27794 116.868C1.21924 116.809 1.17337 116.739 1.14326 116.662C1.11314 116.585 1.09946 116.503 1.10308 116.42C1.1067 116.338 1.12755 116.257 1.16429 116.183C1.20102 116.109 1.25284 116.043 1.31641 115.99L9.21756 108.592C9.3229 108.505 9.45661 108.459 9.59327 108.464C9.72994 108.469 9.86005 108.524 9.95887 108.618Z" fill="#151615"/>
<path d="M58.0903 119.209L55.0458 121.372L48.0923 120.549C47.9569 120.533 47.8138 120.527 47.6715 120.531C47.5293 120.535 47.3907 120.549 47.264 120.572C47.1373 120.595 47.0251 120.628 46.9341 120.667C46.843 120.706 46.7749 120.751 46.7339 120.799L43.5902 124.522C43.3527 124.803 44.0678 125.069 44.8701 124.998L53.7132 124.213L52.3805 126.58C52.9811 127.007 53.9045 127.365 55.0471 127.616C56.1896 127.867 57.5063 128 58.8495 128H59.2383C60.5815 128 61.8982 127.867 63.0408 127.616C64.1833 127.365 65.1067 127.007 65.7074 126.58L64.3747 124.213L73.218 124.998C74.02 125.069 74.7354 124.803 74.4976 124.522L71.3539 120.799C71.3129 120.751 71.2448 120.706 71.1538 120.667C71.0627 120.628 70.9505 120.595 70.8238 120.572C70.6972 120.549 70.5586 120.535 70.4163 120.531C70.274 120.527 70.1309 120.533 69.9955 120.549L63.042 121.372L59.9975 119.209C59.6046 118.93 58.4832 118.93 58.0903 119.209Z" fill="#E4C417"/>
<path d="M62.6769 12.4736L58.7778 0.00036355L54.8788 12.4736L53.4374 79.8106H64.1182L62.6769 12.4736Z" fill="#D1D3D4"/>
<path d="M58.7785 79.8291L58.7785 0.000370251L62.6775 12.4736L64.1189 79.8106L58.7785 79.8291Z" fill="#A7A9AC"/>
<path d="M57.0256 40.9321L50.2832 34.1898L54.4906 30.1653L62.3306 35.3919L57.0256 40.9321Z" fill="#6D6E71"/>
<path d="M58.7045 30.9311L54.4936 28.7109L54.4936 34.4531L63.3314 36.8449L63.0361 27.4272L58.7045 30.9311Z" fill="#58595B"/>
<path d="M70.8819 79.8105L60.6816 79.8105L59.9978 98.9361C60.9403 99.3981 61.6055 100.359 61.587 101.486C61.587 103.038 60.312 104.313 58.7598 104.313C57.2075 104.313 55.9325 103.038 55.9325 101.486C55.9325 100.377 56.5793 99.3981 57.5217 98.9361L56.8564 79.8289L46.6746 79.8104L45.3441 77.7778C45.3441 77.7778 55.2118 79.8104 58.7782 76.0962C62.3447 79.8105 72.2124 77.7778 72.2124 77.7778L70.8819 79.8105Z" fill="#231F20"/>
<path d="M56.9299 81.3814L60.5518 83.6728L60.4779 85.8163L57.0039 83.6358L56.9299 81.3814ZM57.1147 86.5185L60.3855 88.5697L60.2931 90.6947L57.1886 88.736L57.1147 86.5185ZM58.9257 79.8292L60.6812 79.8107L60.6627 80.9009L58.9257 79.8292ZM57.281 91.6372L60.2007 93.4481L60.1083 95.6101L57.3734 93.8731L57.281 91.6372ZM60.0159 98.3635L59.9605 99.8603H57.5952L57.4843 96.7558L60.0159 98.3635Z" fill="#414042"/>
<path d="M70.8815 79.8104H58.7594H46.6742L45.3437 77.7777C45.3437 77.7777 55.2114 79.8104 58.7778 76.0961C62.3443 79.8104 72.212 77.7777 72.212 77.7777L70.8815 79.8104Z" fill="#58595B"/>
<path d="M60.7735 99.4904C59.6713 98.3882 57.8843 98.3882 56.7821 99.4904C55.6799 100.593 55.6799 102.38 56.7821 103.482C57.8843 104.584 59.6713 104.584 60.7735 103.482C61.8758 102.38 61.8758 100.593 60.7735 99.4904Z" fill="#6D6E71"/>
<path d="M59.7942 100.47C59.2329 99.9087 58.3228 99.9087 57.7615 100.47C57.2002 101.031 57.2002 101.941 57.7615 102.503C58.3228 103.064 59.2329 103.064 59.7942 102.503C60.3555 101.941 60.3555 101.031 59.7942 100.47Z" fill="#00A79D"/>
<path d="M46.6747 79.8105L45.3442 77.7778C45.3442 77.7778 55.2119 79.8105 58.7784 76.0962L58.7784 79.792L46.6747 79.8105Z" fill="#6D6E71"/>
<path d="M74.8557 18.7719L86.4326 12.709L80.3697 24.286L33.7745 72.9196L26.222 65.3672L74.8557 18.7719Z" fill="#D1D3D4"/>
<path d="M29.9852 69.1562L86.4326 12.7088L74.8557 18.7716L26.222 65.3669L29.9852 69.1562Z" fill="#A7A9AC"/>
<path d="M21.4398 60.5849L28.6525 67.7976L15.6121 81.7788C14.6191 81.4391 13.4692 81.6482 12.6852 82.4583C11.5876 83.5559 11.5876 85.3591 12.6852 86.4567C13.7828 87.5542 15.586 87.5542 16.6836 86.4567C17.4676 85.6727 17.7028 84.5228 17.363 83.5297L31.3442 70.4893L38.5569 77.7021L40.9351 77.2055C40.9351 77.2055 32.5202 71.6653 32.6247 66.5171C27.4765 66.6217 21.9363 58.2068 21.9363 58.2068L21.4398 60.5849Z" fill="#231F20"/>
<path d="M30.1943 71.5608L26.013 70.6201L24.5496 72.188L28.548 73.1027L30.1943 71.5608ZM26.4312 75.0627L22.668 74.2003L21.2307 75.7683L24.8109 76.5784L26.4312 75.0627ZM29.8807 69.0521L28.6525 67.7977L27.8946 68.5817L29.8807 69.0521ZM22.6941 78.5645L19.3491 77.7805L17.8857 79.3746L21.0478 80.0802L22.6941 78.5645ZM16.0041 81.3869L14.9849 82.4845L16.6574 84.157L18.931 82.0402L16.0041 81.3869Z" fill="#414042"/>
<path d="M21.4398 60.5851L30.0114 69.1568L38.5569 77.7023L40.9351 77.2057C40.9351 77.2057 32.5202 71.6655 32.6247 66.5173C27.4765 66.6218 21.9363 58.207 21.9363 58.207L21.4398 60.5851Z" fill="#58595B"/>
<path d="M14.6718 81.6482C13.113 81.6482 11.8494 82.9118 11.8494 84.4705C11.8494 86.0293 13.113 87.2929 14.6718 87.2929C16.2305 87.2929 17.4941 86.0293 17.4941 84.4705C17.4941 82.9118 16.2305 81.6482 14.6718 81.6482Z" fill="#6D6E71"/>
<path d="M14.6716 83.0335C13.8778 83.0335 13.2342 83.677 13.2342 84.4708C13.2342 85.2646 13.8778 85.9081 14.6716 85.9081C15.4654 85.9081 16.1089 85.2646 16.1089 84.4708C16.1089 83.677 15.4654 83.0335 14.6716 83.0335Z" fill="#00A79D"/>
<path d="M38.5569 77.7023L40.9351 77.2057C40.9351 77.2057 32.5202 71.6655 32.6247 66.5173L30.0114 69.1306L38.5569 77.7023Z" fill="#6D6E71"/>
<path d="M62.0788 43.9943L55.3364 37.252L59.5439 33.2275L67.3838 38.4541L62.0788 43.9943Z" fill="#6D6E71"/>
<path d="M42.5661 18.7526L30.9891 12.6897L37.052 24.2667L83.6473 72.9003L91.1997 65.3479L42.5661 18.7526Z" fill="#D1D3D4"/>
<path d="M87.4365 69.1369L30.9891 12.6895L42.5661 18.7523L91.1997 65.3476L87.4365 69.1369Z" fill="#A7A9AC"/>
<path d="M95.9828 60.5652L88.7701 67.7779L101.81 81.7852C102.804 81.4455 103.953 81.6546 104.737 82.4647C105.835 83.5623 105.835 85.3655 104.737 86.4631C103.64 87.5607 101.837 87.5607 100.739 86.4631C99.955 85.6791 99.7198 84.5292 100.06 83.5362L86.0783 70.4958L78.8656 77.6824L76.4875 77.1858C76.4875 77.1858 84.9024 71.6456 84.7978 66.4974C89.946 66.6019 95.4863 58.1871 95.4863 58.1871L95.9828 60.5652Z" fill="#231F20"/>
<path d="M87.2276 71.5412L91.4089 70.6004L92.8723 72.1684L88.874 73.083L87.2276 71.5412ZM90.9907 75.043L94.7539 74.1806L96.1912 75.7486L92.611 76.5587L90.9907 75.043ZM87.5412 69.0324L88.7694 67.778L89.5273 68.562L87.5412 69.0324ZM94.7278 78.5449L98.0728 77.7609L99.5362 79.355L96.3741 80.0606L94.7278 78.5449ZM101.418 81.3672L102.437 82.4648L100.764 84.1373L98.4909 82.0206L101.418 81.3672Z" fill="#414042"/>
<path d="M95.9829 60.565L87.4113 69.1367L78.8658 77.6822L76.4876 77.1857C76.4876 77.1857 84.9025 71.6455 84.798 66.4972C89.9462 66.6018 95.4864 58.1869 95.4864 58.1869L95.9829 60.565Z" fill="#58595B"/>
<path d="M102.751 81.6289C101.192 81.6289 99.9285 82.8925 99.9285 84.4512C99.9285 86.01 101.192 87.2736 102.751 87.2736C104.31 87.2736 105.573 86.01 105.573 84.4512C105.573 82.8925 104.31 81.6289 102.751 81.6289Z" fill="#6D6E71"/>
<path d="M102.751 83.0134C101.957 83.0134 101.314 83.6569 101.314 84.4507C101.314 85.2445 101.957 85.888 102.751 85.888C103.545 85.888 104.188 85.2445 104.188 84.4507C104.188 83.6569 103.545 83.0134 102.751 83.0134Z" fill="#00A79D"/>
<path d="M78.8651 77.6822L76.487 77.1857C76.487 77.1857 84.9019 71.6455 84.7973 66.4972L87.4106 69.1105L78.8651 77.6822Z" fill="#6D6E71"/>
</svg>
