<svg width="173" height="129" viewBox="0 0 173 129" fill="none" xmlns="http://www.w3.org/2000/svg">
<path d="M138.085 41.8011C135.923 42.2996 133.688 42.3925 131.492 42.0754C127.71 41.5716 124.043 40.3025 120.319 39.4097C115.638 38.3259 110.82 37.9519 106.028 38.3001L114.956 54.9443C116.869 53.197 119.853 52.3935 122.838 52.3935C125.873 52.4748 128.874 53.0544 131.721 54.1089C133.043 54.6125 134.399 55.0259 135.777 55.3461C137.117 55.6689 138.525 55.5709 139.807 55.0655C141.765 52.1575 140.419 47.1324 138.085 41.8011Z" fill="#323232"/>
<path d="M123.195 31.3106C126.422 32.0184 129.923 32.2416 132.875 31.4381C130.356 26.7 128.316 22.7398 128.768 21.12C125.376 22.0383 121.46 21.12 117.927 19.8446C114.394 18.5692 110.97 16.9685 107.284 16.4711C103.846 15.9648 100.336 16.5774 97.272 18.2184L97.0615 21.5919L100.046 27.1655C103.482 26.8504 106.947 27.0459 110.326 27.7458C114.694 28.6386 118.852 30.354 123.195 31.3106Z" fill="#E71000"/>
<path d="M131.492 42.075C133.688 42.3922 135.923 42.2992 138.086 41.8008C136.555 38.3125 134.604 34.6904 132.875 31.4381C129.923 32.2416 126.422 32.0184 123.195 31.3105C118.852 30.3539 114.694 28.6385 110.345 27.733C106.966 27.0331 103.502 26.8376 100.065 27.1527L106.028 38.2998C110.82 37.9515 115.638 38.3256 120.319 39.4094C124.043 40.3022 127.71 41.5712 131.492 42.075Z" fill="white"/>
<path d="M115.288 21.3812C112.577 18.4797 96.8833 21.1899 97.2787 18.1927C96.8833 21.1772 94.3452 24.6527 94.3452 24.6527L107.552 31.0298C107.552 31.0298 115.511 27.8221 115.288 21.3812Z" fill="#8E0000"/>
<path d="M117.347 61.0534L117.239 61.1937L117.035 61.3403C115.325 62.6243 113.372 63.5484 111.295 64.057C110.378 64.2902 109.448 64.467 108.509 64.5863C107.177 64.7593 105.834 64.8296 104.491 64.7967C102.489 64.7563 100.495 64.53 98.5349 64.1208C91.8517 62.7242 85.6851 59.5611 79.7544 56.3216C73.8237 53.082 67.9122 49.6703 61.3757 47.6488C58.9597 46.8453 56.4401 46.3964 53.8953 46.3159C51.4831 46.2155 49.0972 46.8492 47.0527 48.1334L51.0894 32.7391C61.0122 32.3438 71.4642 35.4111 80.5962 39.9134C85.3726 42.2665 89.9003 45.015 94.7087 47.2916C97.5756 48.6944 100.564 49.8341 103.637 50.697C105.29 51.1534 106.977 51.4817 108.681 51.6791C109.121 51.7301 109.561 51.7683 110.001 51.8002C110.809 51.8565 111.62 51.8714 112.431 51.8449C114.622 51.8047 116.795 51.4261 118.871 50.7225C119.337 55.1928 119.114 58.8852 117.347 61.0534Z" fill="#323232"/>
<path d="M116.665 37.12C114.681 38.0326 112.553 38.5895 110.377 38.7652C109.317 38.8662 108.252 38.9003 107.188 38.8673C105.571 38.8195 103.96 38.6339 102.374 38.3125C101.736 38.1849 101.162 38.0446 100.569 37.8916C95.1165 36.4886 90.0339 33.8613 85.1555 31.1446C79.735 28.141 74.3463 24.9461 68.3838 23.0139C63.7094 21.4897 58.5439 20.8265 53.9971 21.7384L56.2418 13.2187C60.017 10.5084 65.8074 10.2725 70.9665 11.5989C76.1255 12.9253 80.7489 15.5973 85.1874 18.3395C89.6258 21.0816 94.026 23.9704 98.9938 25.8325L99.1213 25.8772C101.41 26.7735 103.828 27.2946 106.283 27.4204C107.262 27.4521 108.241 27.3772 109.203 27.1972C109.305 27.1827 109.405 27.1614 109.503 27.1335C112.647 26.432 114.994 24.0342 115.319 21.3941C114.981 26.2853 115.74 31.776 116.665 37.12Z" fill="#E71000"/>
<path d="M118.871 50.7226C116.795 51.4262 114.622 51.8048 112.43 51.845C111.62 51.8716 110.809 51.8567 110 51.8004C104.707 51.4432 99.5165 49.5875 94.6954 47.2918C89.8743 44.996 85.3594 42.2666 80.5829 39.9135C71.4509 35.4113 60.9989 32.3439 51.0762 32.7393L53.9714 21.726C58.5182 20.8269 63.6837 21.4901 68.3581 23.0015C74.3206 24.9146 79.7093 28.1031 85.1298 31.1322C90.5503 34.1613 96.2068 37.0502 102.348 38.3001C104.984 38.8405 107.684 38.993 110.364 38.7528C112.54 38.5771 114.668 38.0202 116.652 37.1076C117.493 41.9541 118.476 46.6604 118.871 50.7226Z" fill="white"/>
<g style="mix-blend-mode:soft-light" opacity="0.5">
<path d="M118.871 50.7222C118.463 46.66 117.494 41.9537 116.665 37.1199C115.74 31.7759 114.981 26.2789 115.306 21.3813C114.981 24.0214 112.634 26.4192 109.49 27.1207C109.335 31.0234 109.632 34.931 110.377 38.7652C110.727 40.8505 111.116 42.9294 111.486 45.002C111.882 47.2658 112.226 49.5552 112.43 51.8446C112.787 56.0471 112.628 60.2113 111.282 64.0567C113.359 63.5481 115.312 62.624 117.022 61.3401L117.226 61.1934L117.334 61.0531C119.113 58.8849 119.336 55.1926 118.871 50.7222Z" fill="white"/>
</g>
<g style="mix-blend-mode:soft-light" opacity="0.5">
<path d="M107.175 38.8672C106.659 35.0609 106.357 31.2286 106.27 27.3885C103.815 27.2627 101.397 26.7416 99.1084 25.8452C99.0895 29.8988 99.5758 33.939 100.556 37.8724C101.053 40.1044 101.634 42.3363 102.195 44.5428C102.711 46.5771 103.215 48.6241 103.636 50.6776C104.625 55.4221 105.173 60.1922 104.478 64.7773C105.821 64.8102 107.164 64.7398 108.496 64.5668C109.052 60.2858 109.114 55.9549 108.68 51.6596C108.336 47.4061 107.711 43.1462 107.175 38.8672Z" fill="white"/>
</g>
<path d="M58.7302 3.28896L57.5835 2.59531L57.245 3.89205L34.2987 91.8074L27.1031 51.3485C27.1027 51.346 27.1023 51.3436 27.1019 51.3411C27.0602 51.0975 26.9565 50.8687 26.8007 50.6767C26.6451 50.4849 26.4427 50.3363 26.2131 50.2453L24.6503 49.6126C24.6487 49.612 24.6471 49.6113 24.6455 49.6106C24.4592 49.5341 24.2589 49.4974 24.0577 49.5028C23.8546 49.5082 23.655 49.5563 23.4717 49.6441C23.2883 49.7318 23.1257 49.8572 22.9942 50.0119L23.7561 50.6596L22.9941 50.0119C22.8632 50.166 22.766 50.3458 22.7088 50.5398C22.7086 50.5407 22.7083 50.5416 22.708 50.5425L5.54197 108.417L5.54153 108.419C5.45173 108.723 5.47942 109.05 5.61917 109.335C5.75646 109.616 5.99206 109.835 6.28065 109.952L8.18601 110.752L8.18597 110.752L8.19862 110.758C8.36237 110.824 8.53818 110.855 8.7148 110.849L8.71501 110.849C8.8914 110.843 9.06486 110.801 9.22419 110.724C9.3834 110.647 9.52477 110.538 9.63925 110.404C9.75295 110.27 9.83768 110.114 9.88805 109.946C9.88839 109.945 9.88874 109.944 9.88908 109.943L24.1919 62.6912L31.6605 107.171L31.6612 107.175C31.7138 107.481 31.871 107.759 32.1058 107.961L32.1058 107.961C32.3406 108.164 32.6385 108.278 32.9487 108.286L32.9603 108.286H32.9719H33.9484C34.2416 108.291 34.5287 108.2 34.7653 108.026C35.0082 107.847 35.1836 107.592 35.263 107.301L35.2631 107.301L35.2665 107.288L61.5211 5.81078L61.7076 5.09001L61.0706 4.70467L58.7302 3.28896Z" fill="#E71000" stroke="#E71000" stroke-width="2"/>
<path d="M65.5901 4.91014C66.1309 3.78108 64.0383 1.97865 60.8919 0.952766C57.7454 -0.0731183 54.7456 0.127402 54.2006 1.3032C53.8255 2.10563 54.7128 3.17507 56.2958 4.08347L55.6618 7.33302C55.3573 8.02404 56.0731 9.09972 57.5749 9.565C59.0467 10.0276 60.5874 9.93716 60.8919 9.24614L61.739 5.82303C63.6876 6.03414 65.215 5.71258 65.5901 4.91014Z" fill="#E71000"/>
<mask id="mask0_68_411" style="mask-type:alpha" maskUnits="userSpaceOnUse" x="43" y="52" width="75" height="66">
<path d="M81.1701 63.4513C72.561 59.358 68.0968 53.8857 55.9804 52.2914L43.8633 99.8006C44.2071 100.436 45.7117 102.668 46.0959 103.308C53.0282 114.862 63.314 119.193 68.0968 117.019C69.3334 116.457 71.0217 115.981 72.8796 114.787C76.2916 112.594 80.2754 109.389 83.083 108.729C87.2281 107.753 92.9674 111.598 96.4748 114.149C115.607 112.236 119.735 80.3009 115.607 67.9152C109.517 73.8482 95.7526 70.3847 81.1701 63.4513Z" fill="#D9D9D9"/>
</mask>
<g mask="url(#mask0_68_411)">
<path d="M78.1789 118.057C98.719 118.057 115.37 101.177 115.37 80.3554C115.37 59.5336 98.719 42.6541 78.1789 42.6541C57.6388 42.6541 40.9878 59.5336 40.9878 80.3554C40.9878 101.177 57.6388 118.057 78.1789 118.057Z" fill="white" stroke="#323232" stroke-width="3" stroke-miterlimit="10"/>
<path d="M78.109 118.057C87.7028 118.057 95.4801 101.18 95.4801 80.3622C95.4801 59.5438 87.7028 42.6672 78.109 42.6672C68.5151 42.6672 60.7378 59.5438 60.7378 80.3622C60.7378 101.18 68.5151 118.057 78.109 118.057Z" stroke="#323232" stroke-width="3" stroke-miterlimit="10"/>
<path d="M78.1094 43.2346V117.381" stroke="#323232" stroke-width="3" stroke-miterlimit="10"/>
<path d="M46.6572 60.7268C46.6572 60.7268 78.0325 70.4072 108.292 61.0903L109.841 60.561" stroke="#323232" stroke-width="3" stroke-miterlimit="10"/>
<path d="M109.815 99.2762C109.815 99.2762 80.5381 90.8776 48.8759 98.3579L46.2485 99.1678" stroke="#323232" stroke-width="3" stroke-miterlimit="10"/>
<path d="M40.9878 80.3555H115.376" stroke="#323232" stroke-width="3" stroke-miterlimit="10"/>
<path d="M108.856 60.6046L104.672 62.3728L98.7189 59.9567L95.2415 58.012L90.0551 58.3069L86.5778 56.3622L89.9958 51.8829L94.9465 52.8256L100.26 51.3237C103.65 53.8871 106.559 57.029 108.856 60.6046ZM81.3323 50.2332L79.3876 53.7105L75.4389 54.2411L70.5474 59.7224L63.652 62.257L54.7527 61.8449L54.0456 65.558L56.0496 68.5046L55.1068 73.4553L51.8654 70.2729L48.6237 67.0905L47.7028 60.2075C50.3707 56.1838 53.81 52.7291 57.8218 50.0433C61.8336 47.3575 66.3381 45.494 71.0748 44.5605L74.142 47.5814L81.3323 50.2332ZM77.2086 85.3591L74.7926 91.3118L68.8991 95.3197L68.1921 99.0328L62.5343 101.803L61.3559 107.991L57.8787 106.047L56.5817 99.3869L58.9385 87.0103L52.9858 84.5942L51.4533 79.1721L52.1604 75.4591L55.107 73.4552L59.5271 70.4492L61.0597 75.8712L69.7233 77.521L72.2579 84.4164L77.2086 85.3591ZM112.804 68.8335C117.265 82.1738 113.665 96.8904 103.548 106.663L100.843 102.685L101.785 97.7344L100.253 92.3124L98.7204 86.8903L99.6631 81.9396L96.4214 78.7573L91.2351 79.0522L83.2785 73.6894L83.6907 64.7901L88.1108 61.7841L95.5367 63.1982L97.305 67.3826L104.495 70.0343L112.393 68.9731L112.804 68.8335Z" fill="#03AA6F"/>
</g>
<mask id="mask1_68_411" style="mask-type:luminance" maskUnits="userSpaceOnUse" x="0" y="105" width="173" height="24">
<path d="M0.5 105.221L173 114.468L159.289 128.855H13.3528C7.59029 121.955 3.21927 113.918 0.5 105.221Z" fill="white"/>
</mask>
<g mask="url(#mask1_68_411)">
<path d="M176.271 128.39C172.874 125.737 169.269 125.692 165.609 126.649C162.151 127.548 158.876 129.321 155.516 130.845C149.592 133.542 143.918 133.045 138.428 128.594C136.342 126.862 134.085 125.365 131.696 124.13C130.47 123.485 129.116 123.149 127.742 123.149C126.369 123.149 125.015 123.485 123.788 124.13C121.279 125.482 118.893 127.068 116.658 128.868C112.319 132.127 107.82 133.504 102.973 131.91C100.515 131.054 98.1019 130.062 95.7449 128.938C92.9969 127.663 90.0163 124.232 87.1764 123.926C85.8631 123.823 84.5425 123.913 83.2533 124.193C79.7953 125.099 75.1744 129.327 71.8327 130.851C65.9081 133.549 60.2346 133.051 54.7446 128.6C52.6594 126.867 50.4024 125.37 48.0122 124.136C46.7861 123.491 45.4318 123.156 44.0584 123.156C42.6851 123.156 41.3308 123.491 40.1047 124.136C37.5834 125.482 35.1846 127.064 32.9377 128.861C28.5984 132.12 24.0999 133.498 19.2526 131.903C16.7942 131.047 14.3814 130.055 12.0245 128.932C8.29104 127.223 4.53926 125.635 0.548783 126.209C-0.713505 126.357 -1.93472 126.766 -3.04342 127.412C-4.15212 128.058 -5.12604 128.928 -5.9082 129.971C-0.834421 128.058 3.80482 130.188 8.38285 132.968C10.0843 134.001 11.798 134.99 13.4933 136.042C19.2036 139.607 24.9201 139.728 30.6732 136.221C32.3012 135.232 33.9782 134.384 35.5695 133.37C41.0289 129.958 46.4821 129.722 51.9843 133.147C54.053 134.422 56.1707 135.526 58.2699 136.705C63.3458 139.562 68.4114 139.52 73.4668 136.578C76.0312 135.086 78.5834 133.536 81.154 132.076C82.6443 131.198 84.2174 130.482 85.8483 129.939C88.018 130.702 90.0978 131.718 92.0482 132.968C93.7497 134.001 95.4634 134.99 97.1587 136.042C102.869 139.607 108.585 139.728 114.339 136.221C115.967 135.232 117.644 134.384 119.265 133.37C124.725 129.958 130.178 129.722 135.68 133.147C137.743 134.422 139.867 135.526 141.966 136.705C147.038 139.562 152.103 139.52 157.163 136.578C159.727 135.086 162.279 133.536 164.85 132.076C168.602 129.939 172.433 128.536 176.479 129.754C176.834 129.863 177.195 130.226 177.654 129.965C177.313 129.337 176.84 128.799 176.271 128.39Z" fill="#2992CC"/>
<path d="M169.716 116.923C166.705 114.5 163.541 114.29 160.297 115.214C156.869 116.19 153.632 118.205 150.314 119.787C145.314 122.172 140.43 122.255 135.675 118.326C133.826 116.804 131.962 115.34 130.081 113.932C126.806 111.484 123.464 110.795 120.019 113.046C118.104 114.275 116.282 115.657 114.572 117.178C109.632 121.642 104.467 122.695 99.0381 120.016C96.8531 118.938 88.5172 112.434 86.0323 112.427C84.8424 112.424 83.6579 112.593 82.5131 112.931C79.0918 113.907 74.985 118.205 71.6678 119.787C66.6675 122.172 61.7834 122.255 57.0279 118.326C55.1918 116.802 53.3128 115.342 51.4339 113.932C48.1595 111.484 44.8178 110.795 41.372 113.046C39.4579 114.277 37.6369 115.658 35.9249 117.178C30.9857 121.642 25.8263 122.695 20.3975 120.016C18.2125 118.938 16.0276 117.854 13.8365 116.828C10.6661 115.304 7.4713 114.149 4.12958 115.036C2.1108 115.535 0.308655 116.719 -0.993164 118.403C-0.74835 118.441 -0.650422 118.498 -0.570857 118.46C2.56277 117.185 5.61071 117.912 8.60969 119.455C12.0493 121.202 15.2748 123.836 18.6716 125.768C22.6865 128.058 26.7015 128.408 30.7838 126.304C33.4278 124.946 35.9861 123.243 38.5628 121.623C42.9572 118.862 47.3516 118.275 51.8256 121.043C54.0167 122.408 56.2384 123.67 58.4172 125.086C62.9891 128.039 67.5978 128.734 72.3043 126.004C74.679 124.627 77.017 123.064 79.355 121.54C81.1435 120.299 83.0664 119.283 85.0836 118.511C85.8246 118.779 86.5483 119.097 87.2502 119.461C90.6899 121.209 93.9153 123.842 97.3121 125.775C101.333 128.064 105.342 128.415 109.43 126.31C112.074 124.952 114.633 123.249 117.209 121.63C121.604 118.868 125.998 118.282 130.466 121.049C132.663 122.414 134.879 123.677 137.064 125.092C141.63 128.045 146.244 128.74 150.951 126.011C153.326 124.633 155.658 123.071 158.002 121.547C162.151 118.836 166.344 116.604 171.173 118.683C170.82 117.99 170.322 117.389 169.716 116.923Z" fill="#38B2E8"/>
</g>
<mask id="mask2_68_411" style="mask-type:luminance" maskUnits="userSpaceOnUse" x="112" y="60" width="57" height="58">
<path d="M167.355 115.838V62.0816H113.599V115.838H167.355Z" fill="white" stroke="white" stroke-width="3"/>
</mask>
<g mask="url(#mask2_68_411)">
<path d="M155.304 107.25H113.762L115.867 100.935C116.621 98.6709 118.643 96.9846 120.983 96.5165L167.192 87.2968L165.256 98.9136C164.454 103.724 160.181 107.25 155.304 107.25Z" stroke="#323232" stroke-width="3" stroke-miterlimit="10" stroke-linecap="round" stroke-linejoin="round"/>
<path d="M157.105 97.1107C157.015 97.1107 156.942 97.1836 156.942 97.2735C156.942 97.3634 157.015 97.4363 157.105 97.4363C157.195 97.4363 157.267 97.3634 157.267 97.2735C157.267 97.1836 157.195 97.1107 157.105 97.1107Z" fill="#323232" stroke="#323232" stroke-width="3"/>
<path d="M150.454 97.1107C150.364 97.1107 150.291 97.1836 150.291 97.2735C150.291 97.3634 150.364 97.4363 150.454 97.4363C150.544 97.4363 150.617 97.3634 150.617 97.2735C150.617 97.1836 150.544 97.1107 150.454 97.1107Z" fill="#323232" stroke="#323232" stroke-width="3"/>
<path d="M143.802 97.1107C143.713 97.1107 143.64 97.1836 143.64 97.2735C143.64 97.3634 143.713 97.4363 143.802 97.4363C143.892 97.4363 143.965 97.3634 143.965 97.2735C143.965 97.1836 143.892 97.1107 143.802 97.1107Z" fill="#323232" stroke="#323232" stroke-width="3"/>
<path d="M121.949 96.3232L127.175 83.9712H123.849C122.012 83.9712 120.523 82.4823 120.523 80.6456V77.3201H147.128L150.453 83.9712H153.869" stroke="#323232" stroke-width="3" stroke-miterlimit="10" stroke-linecap="round" stroke-linejoin="round"/>
<path d="M127.175 70.6691L130.5 77.3202" stroke="#323232" stroke-width="3" stroke-miterlimit="10" stroke-linecap="round" stroke-linejoin="round"/>
<path d="M123.849 70.6691H140.477L143.802 77.3202" stroke="#323232" stroke-width="3" stroke-miterlimit="10" stroke-linecap="round" stroke-linejoin="round"/>
<path d="M158.012 89.1106L153.779 83.9711H133.826" stroke="#323232" stroke-width="3" stroke-miterlimit="10" stroke-linecap="round" stroke-linejoin="round"/>
</g>
<path d="M124.853 106.497C123.578 101.65 128.786 96.931 131.549 95.3367V94.699C129.105 95.3367 123.642 96.6121 121.346 96.6121C119.05 96.6121 116.776 99.5881 115.925 101.076L114.331 106.815L124.853 106.497Z" fill="#323232"/>
</svg>
