<svg width="258" height="22" viewBox="0 0 258 22" fill="none" xmlns="http://www.w3.org/2000/svg">
<mask id="mask0_158_20" style="mask-type:alpha" maskUnits="userSpaceOnUse" x="0" y="0" width="31" height="22">
<rect width="31" height="21.7304" fill="#D9D9D9"/>
</mask>
<g mask="url(#mask0_158_20)">
<path d="M0 21.7516L7.63399 6.01306H10.3529L2.71895 21.7516H0Z" fill="white"/>
<path d="M8.5752 3.97386L10.5621 0H13.2811L11.2941 3.97386H8.5752Z" fill="white"/>
<path d="M6.06543 21.7516L16.6275 0H19.3465L8.78438 21.7516H6.06543Z" fill="white"/>
<path d="M23.9478 9.04575L19.5556 0H16.8366L21.2288 9.04575H23.9478Z" fill="white"/>
<path d="M30.1699 21.6993L25.7778 12.8627H23.0588L27.451 21.6993H30.1699Z" fill="white"/>
<path d="M6.0653 21.7759L30.2457 21.7804L28.9673 19.3348L7.25341 19.3303L6.0653 21.7759Z" fill="white"/>
</g>
<path d="M50.1981 21.5981H49.8939C49.1638 21.5981 48.3424 21.4767 48.1903 20.809L48.1599 20.5358C48.1599 19.6253 48.7379 17.3793 49.4984 14.8298C50.7761 10.5502 52.6014 5.29942 53.2098 3.8122L53.0273 3.78185C51.6887 3.78185 48.8292 9.1237 48.5858 10.2771L48.5554 10.702C48.5554 10.8537 48.5554 10.9144 48.6162 10.9448C48.7683 10.9751 48.89 11.1269 48.89 11.2483C48.89 11.3697 48.8292 11.4608 48.6771 11.5215C48.2816 11.6429 47.7948 11.7946 47.3081 11.7946C47.0039 11.7946 46.7301 11.7339 46.5172 11.6125C46.1217 11.3697 46 10.9751 46 10.5502C46 10.3074 46.0304 10.0342 46.0913 9.79143C46.6997 7.51508 49.7722 2.84096 52.358 2.6285L52.9056 2.59814C54.092 2.59814 55.9173 2.90166 55.9173 4.02466C55.9173 4.20677 55.8564 4.38888 55.7652 4.60134C55.3697 5.57258 53.3619 11.1269 51.9321 15.6796C51.1107 18.2291 50.5023 20.4448 50.4719 21.2946C50.4719 21.4464 50.3502 21.5981 50.1981 21.5981Z" fill="white"/>
<path d="M60.4945 20.1413C59.3993 20.1413 58.6388 19.8985 58.6388 18.3809C58.6996 16.1652 60.4032 11.2483 60.4336 10.8841C60.4336 10.793 60.4032 10.7323 60.3424 10.7323C60.2511 10.7323 60.1294 10.8234 60.0382 10.9144C58.5779 12.2195 56.5093 15.6189 55.9617 16.5598C55.5967 17.8953 55.2925 19.1093 55.262 19.8074C55.262 20.0806 55.1099 20.1109 54.8666 20.1109H54.7145C53.9844 20.1109 53.0109 19.9592 52.9805 19.2611C52.9805 17.7132 54.7753 11.7339 55.5358 9.76108C55.6271 9.51827 55.9313 9.39687 56.2964 9.39687C57.0265 9.39687 58.0304 9.82179 58.0304 10.3074L57.9999 10.4288C57.7566 11.0055 56.7527 14.0103 56.6614 14.2531C57.1177 13.5854 57.6349 12.8266 58.1825 12.1285C59.0951 10.9448 60.3728 9.39687 61.6505 9.39687C62.411 9.39687 63.0498 9.85214 63.0498 10.6716L63.0194 11.0358C62.5935 13.1301 61.1333 17.1972 61.1333 18.9576C61.1333 19.3218 61.1637 19.5039 61.3158 19.5039C62.0764 19.4432 62.624 18.4416 64.7534 13.6764C64.8143 13.555 64.9055 13.4943 64.9968 13.4943C65.1793 13.4943 65.3314 13.6157 65.3314 13.7978C65.3314 13.8282 65.3314 13.8585 65.301 13.9192C63.1715 18.7451 62.5023 20.0502 61.3463 20.1109L60.4945 20.1413Z" fill="white"/>
<path d="M66.3581 20.1109H65.9018C65.1717 20.1109 64.472 20.0199 64.1982 19.3825C64.0461 19.0486 63.9549 18.563 63.9549 18.0167C63.9549 15.6493 65.2021 11.7036 66.3277 8.66843C65.7193 8.63808 65.1413 8.63808 64.6546 8.63808C64.472 8.60773 64.3503 8.45597 64.3503 8.33457C64.3503 8.18281 64.472 8.03105 64.6546 8.03105L66.5407 8.0614C66.9361 7.02945 67.3012 6.14926 67.6054 5.48153C67.6967 5.20837 68.0009 5.11731 68.3659 5.11731C69.1569 5.11731 70.252 5.60294 70.252 6.05821L70.2216 6.14926C69.9478 6.75629 69.674 7.42402 69.4003 8.15246L70.9213 8.18281C71.1038 8.18281 71.2255 8.33457 71.2255 8.48632C71.2255 8.63808 71.1038 8.78984 70.8909 8.78984C70.3737 8.75949 69.7957 8.75949 69.1569 8.75949C68.2138 11.5518 67.1795 14.678 66.5711 17.2579C66.5102 17.44 66.2365 18.6844 66.2365 19.2307C66.2365 19.4432 66.2669 19.5039 66.3581 19.5039C66.6928 19.5039 67.2708 18.7755 67.4837 18.5023C68.4268 17.2275 69.5219 14.9815 70.1304 13.6764C70.1912 13.5247 70.2825 13.4943 70.4042 13.4943C70.4346 13.4943 70.4954 13.4943 70.5563 13.5247C70.6475 13.5854 70.7084 13.6764 70.7084 13.7978C70.7084 13.7978 70.7084 13.8585 70.6779 13.9192C70.0391 15.3761 68.9135 17.6221 67.8792 18.9879C67.5141 19.4128 66.9361 20.0806 66.3581 20.1109Z" fill="white"/>
<path d="M72.7399 14.9512C74.048 14.9512 75.782 12.2803 75.782 11.309C75.782 11.1269 75.7212 11.0358 75.6299 10.9751C75.5387 10.9144 75.4778 10.9144 75.3866 10.9144C74.6869 10.9144 73.7134 12.1892 73.4092 12.6141C72.9529 13.3122 72.5574 14.1013 72.314 14.8298C72.4357 14.9208 72.5878 14.9512 72.7399 14.9512ZM73.3179 20.1109H72.9833C70.3975 20.0199 69.4544 18.5023 69.4544 16.5902C69.4544 15.6493 69.6674 14.6477 70.0324 13.6764C70.7626 11.7339 72.3749 9.39687 74.5956 9.39687H74.7173C75.8733 9.42722 76.8164 10.0039 76.8164 11.1572V11.218C76.7555 13.3729 74.5348 16.0135 72.892 16.0135C72.5878 16.0135 72.2836 15.9224 72.0402 15.71C71.9794 16.0742 71.9186 16.4688 71.9186 16.8633C71.9186 18.0167 72.2532 19.2004 73.2571 19.4128L73.5917 19.4432C73.7742 19.4432 74.0176 19.4128 74.261 19.3521C75.3257 18.9576 76.8468 17.6525 78.7633 13.6764C78.8241 13.555 78.9154 13.4943 79.0067 13.4943C79.0675 13.4943 79.1284 13.5247 79.1892 13.555C79.2805 13.5854 79.3413 13.6764 79.3413 13.7978C79.3413 13.7978 79.3413 13.8585 79.3109 13.9192C77.2727 18.1684 75.5995 19.5342 74.3827 19.9592C73.9872 20.0806 73.6221 20.1109 73.3179 20.1109Z" fill="white"/>
<path d="M83.3312 20.1109H83.027C82.2969 20.1109 81.2322 20.0806 80.8671 19.3825C80.715 19.079 80.6237 18.6541 80.6237 18.1684C80.6237 15.8921 82.1448 12.1285 82.6924 10.4895C82.2969 10.5199 81.7493 10.6716 81.2322 10.6716C81.0801 10.6716 80.8975 10.6716 80.7454 10.6109C80.2891 11.7946 80.0153 12.4017 79.3156 13.9192C79.2852 14.0103 79.1635 14.1013 79.0723 14.1013C79.0114 14.1013 78.981 14.1013 78.9202 14.071C78.8289 14.0406 78.7376 13.9799 78.7376 13.7978C78.7376 13.7675 78.7376 13.7371 78.7681 13.6764C79.4982 12.0678 79.7111 11.5822 80.2283 10.3378C79.9545 10.1253 79.8328 9.82179 79.8328 9.48792C79.8328 9.063 79.9849 8.60773 80.137 8.21316C80.2283 7.97035 80.5629 7.87929 80.8671 7.87929C81.2322 7.87929 81.6276 8.0007 81.6276 8.24351L81.5972 8.33457C81.4755 8.75949 81.2322 9.45757 81.1409 9.67003C81.9623 9.63968 82.662 9.39687 83.3008 9.39687C84.0613 9.39687 84.8219 9.97354 84.9435 10.7627L84.974 10.9751C84.974 11.4608 84.7306 12.0981 84.396 13.0694C83.9092 14.4352 82.9358 17.1365 82.9358 18.6541L82.9966 19.17C83.0574 19.4432 83.1791 19.5342 83.3312 19.5342C83.7267 19.5342 84.3047 18.8362 84.4568 18.5934C85.0348 17.7435 85.7953 16.2259 86.9513 13.6764C87.0122 13.555 87.1034 13.4943 87.1947 13.4943C87.286 13.4943 87.3468 13.5247 87.4077 13.555C87.4685 13.5854 87.5293 13.6764 87.5293 13.7978C87.5293 13.8282 87.5293 13.8585 87.4989 13.9192C86.3429 16.4991 85.5824 18.047 84.974 18.9272C84.3047 19.8985 83.8788 20.1109 83.3312 20.1109Z" fill="white"/>
<path d="M93.1437 20.1413C92.0485 20.1413 91.288 19.8985 91.288 18.3809C91.3489 16.1652 93.0524 11.2483 93.0829 10.8841C93.0829 10.793 93.0524 10.7323 92.9916 10.7323C92.9003 10.7323 92.7786 10.8234 92.6874 10.9144C91.2272 12.2195 89.1585 15.6189 88.611 16.5598C88.2459 17.8953 87.9417 19.1093 87.9113 19.8074C87.9113 20.0806 87.7592 20.1109 87.5158 20.1109H87.3637C86.6336 20.1109 85.6601 19.9592 85.6297 19.2611C85.6297 17.7132 87.4245 11.7339 88.1851 9.76108C88.2763 9.51827 88.5805 9.39687 88.9456 9.39687C89.6757 9.39687 90.6796 9.82179 90.6796 10.3074L90.6492 10.4288C90.4058 11.0055 89.4019 14.0103 89.3106 14.2531C89.767 13.5854 90.2841 12.8266 90.8317 12.1285C91.7443 10.9448 93.022 9.39687 94.2997 9.39687C95.0602 9.39687 95.6991 9.85214 95.6991 10.6716L95.6687 11.0358C95.2428 13.1301 93.7825 17.1972 93.7825 18.9576C93.7825 19.3218 93.813 19.5039 93.9651 19.5039C94.7256 19.4432 95.2732 18.4416 97.4027 13.6764C97.4635 13.555 97.5548 13.4943 97.646 13.4943C97.8286 13.4943 97.9807 13.6157 97.9807 13.7978C97.9807 13.8282 97.9807 13.8585 97.9502 13.9192C95.8208 18.7451 95.1515 20.0502 93.9955 20.1109L93.1437 20.1413Z" fill="white"/>
<path d="M99.6158 17.8346C100.528 17.8042 102.171 14.6173 102.475 13.8585C102.627 13.464 102.901 12.6445 102.901 11.9767C102.901 11.5518 102.78 11.218 102.445 11.1269L102.262 11.0965C100.893 11.0965 99.1595 15.2243 99.1595 17.0151C99.1595 17.5311 99.3116 17.8346 99.6158 17.8346ZM104.149 20.1109H103.783C103.023 20.1109 102.232 20.0199 101.897 19.3825C101.715 19.079 101.654 18.6237 101.654 18.1077C101.654 17.8042 101.684 17.5007 101.715 17.1365C101.015 18.3505 100.042 19.5342 98.8553 19.5342H98.7944C97.3342 19.5039 96.7258 18.2898 96.7258 16.7116C96.7258 13.7068 98.9161 9.42722 101.928 9.42722H101.958C102.749 9.42722 103.388 9.70038 103.753 10.2771L103.966 9.73073C104.118 9.48792 104.392 9.39687 104.757 9.39687C105.457 9.39687 106.4 9.82179 106.4 10.3074L106.369 10.4288C105.974 11.4001 103.996 16.6205 103.936 18.8058C103.936 19.2307 103.966 19.5039 104.118 19.5039C105.122 19.4735 107.039 15.5886 107.921 13.6764C107.982 13.5247 108.073 13.4943 108.195 13.4943L108.347 13.5247C108.438 13.555 108.499 13.6461 108.499 13.7675C108.499 13.8282 108.499 13.8282 108.468 13.9192C107.464 16.0742 105.578 20.0502 104.149 20.1109Z" fill="white"/>
<path d="M109.524 20.1109H109.068C108.338 20.1109 107.638 20.0199 107.364 19.3825C107.212 19.0486 107.121 18.563 107.121 18.0167C107.121 15.6493 108.368 11.7036 109.494 8.66843C108.885 8.63808 108.307 8.63808 107.82 8.63808C107.638 8.60773 107.516 8.45597 107.516 8.33457C107.516 8.18281 107.638 8.03105 107.82 8.03105L109.707 8.0614C110.102 7.02945 110.467 6.14926 110.771 5.48153C110.863 5.20837 111.167 5.11731 111.532 5.11731C112.323 5.11731 113.418 5.60294 113.418 6.05821L113.388 6.14926C113.114 6.75629 112.84 7.42402 112.566 8.15246L114.087 8.18281C114.27 8.18281 114.391 8.33457 114.391 8.48632C114.391 8.63808 114.27 8.78984 114.057 8.78984C113.54 8.75949 112.962 8.75949 112.323 8.75949C111.38 11.5518 110.345 14.678 109.737 17.2579C109.676 17.44 109.402 18.6844 109.402 19.2307C109.402 19.4432 109.433 19.5039 109.524 19.5039C109.859 19.5039 110.437 18.7755 110.65 18.5023C111.593 17.2275 112.688 14.9815 113.296 13.6764C113.357 13.5247 113.448 13.4943 113.57 13.4943C113.6 13.4943 113.661 13.4943 113.722 13.5247C113.813 13.5854 113.874 13.6764 113.874 13.7978C113.874 13.7978 113.874 13.8585 113.844 13.9192C113.205 15.3761 112.079 17.6221 111.045 18.9879C110.68 19.4128 110.102 20.0806 109.524 20.1109Z" fill="white"/>
<path d="M114.902 20.1109H114.506C113.746 20.1109 112.955 20.0199 112.62 19.3825C112.438 19.079 112.347 18.5934 112.347 18.047C112.347 17.4096 112.468 16.6509 112.62 15.8617C113.107 13.5854 114.111 10.8841 114.567 9.76108C114.689 9.51827 114.993 9.39687 115.328 9.39687C116.058 9.39687 117.001 9.85214 117.001 10.3074L116.971 10.4288C116.727 11.0965 114.598 17.1365 114.598 18.9879C114.598 19.3218 114.659 19.5039 114.841 19.5039C115.845 19.4735 117.731 15.5886 118.583 13.6764C118.644 13.5247 118.735 13.4943 118.857 13.4943L119.009 13.5247C119.1 13.555 119.161 13.6461 119.161 13.7675C119.161 13.8282 119.161 13.8585 119.13 13.9192C118.157 16.0742 116.301 20.0502 114.902 20.1109ZM117.123 8.27386C116.514 8.27386 115.632 7.90965 115.632 7.51508C115.632 7.02945 115.997 5.84575 116.18 5.45118C116.271 5.17802 116.545 5.08696 116.879 5.08696C117.579 5.08696 118.492 5.57258 118.492 6.02786C118.492 6.08856 118.492 6.17961 118.431 6.24032C118.279 6.51348 117.853 7.60613 117.64 8.0614C117.579 8.21316 117.366 8.27386 117.123 8.27386Z" fill="white"/>
<path d="M120.889 19.17C122.075 19.17 123.262 16.2259 123.596 15.285C123.11 14.9208 122.927 14.3745 122.927 13.8585C122.927 12.9783 123.475 12.0981 124.053 11.9464C123.961 11.5518 123.779 11.2483 123.383 11.2483H123.231C121.771 11.4911 120.159 15.6189 120.159 17.8042C120.159 18.563 120.341 19.1093 120.798 19.17H120.889ZM120.676 20.1109C118.759 20.1109 117.969 18.563 117.969 16.6205C117.969 13.4943 120.068 9.39687 122.897 9.39687C123.14 9.39687 123.383 9.42722 123.657 9.48792C125.117 9.85214 125.543 11.218 125.543 12.6445C125.543 13.5247 125.361 14.4656 125.148 15.1636C126.152 15.1636 127.247 14.6477 127.764 13.6461C127.825 13.5247 127.916 13.4943 128.007 13.4943C128.068 13.4943 128.129 13.5247 128.19 13.555C128.281 13.5854 128.312 13.6764 128.312 13.7675C128.312 13.8282 128.312 13.8889 128.281 13.9496C127.673 15.1029 126.395 15.7707 125.178 15.7707H124.935C124.266 17.6828 122.775 20.1109 120.676 20.1109Z" fill="white"/>
<path d="M133.963 20.1413C132.867 20.1413 132.107 19.8985 132.107 18.3809C132.168 16.1652 133.871 11.2483 133.902 10.8841C133.902 10.793 133.871 10.7323 133.811 10.7323C133.719 10.7323 133.598 10.8234 133.506 10.9144C132.046 12.2195 129.977 15.6189 129.43 16.5598C129.065 17.8953 128.761 19.1093 128.73 19.8074C128.73 20.0806 128.578 20.1109 128.335 20.1109H128.183C127.453 20.1109 126.479 19.9592 126.449 19.2611C126.449 17.7132 128.243 11.7339 129.004 9.76108C129.095 9.51827 129.399 9.39687 129.765 9.39687C130.495 9.39687 131.499 9.82179 131.499 10.3074L131.468 10.4288C131.225 11.0055 130.221 14.0103 130.13 14.2531C130.586 13.5854 131.103 12.8266 131.651 12.1285C132.563 10.9448 133.841 9.39687 135.119 9.39687C135.879 9.39687 136.518 9.85214 136.518 10.6716L136.488 11.0358C136.062 13.1301 134.602 17.1972 134.602 18.9576C134.602 19.3218 134.632 19.5039 134.784 19.5039C135.545 19.4432 136.092 18.4416 138.222 13.6764C138.282 13.555 138.374 13.4943 138.465 13.4943C138.648 13.4943 138.8 13.6157 138.8 13.7978C138.8 13.8282 138.8 13.8585 138.769 13.9192C136.64 18.7451 135.97 20.0502 134.814 20.1109L133.963 20.1413Z" fill="white"/>
<path d="M140.435 17.8346C141.347 17.8042 142.99 14.6173 143.294 13.8585C143.446 13.464 143.72 12.6445 143.72 11.9767C143.72 11.5518 143.599 11.218 143.264 11.1269L143.081 11.0965C141.712 11.0965 139.978 15.2243 139.978 17.0151C139.978 17.5311 140.131 17.8346 140.435 17.8346ZM144.968 20.1109H144.602C143.842 20.1109 143.051 20.0199 142.716 19.3825C142.534 19.079 142.473 18.6237 142.473 18.1077C142.473 17.8042 142.503 17.5007 142.534 17.1365C141.834 18.3505 140.861 19.5342 139.674 19.5342H139.613C138.153 19.5039 137.545 18.2898 137.545 16.7116C137.545 13.7068 139.735 9.42722 142.747 9.42722H142.777C143.568 9.42722 144.207 9.70038 144.572 10.2771L144.785 9.73073C144.937 9.48792 145.211 9.39687 145.576 9.39687C146.276 9.39687 147.219 9.82179 147.219 10.3074L147.188 10.4288C146.793 11.4001 144.815 16.6205 144.755 18.8058C144.755 19.2307 144.785 19.5039 144.937 19.5039C145.941 19.4735 147.858 15.5886 148.74 13.6764C148.801 13.5247 148.892 13.4943 149.014 13.4943L149.166 13.5247C149.257 13.555 149.318 13.6461 149.318 13.7675C149.318 13.8282 149.318 13.8282 149.287 13.9192C148.283 16.0742 146.397 20.0502 144.968 20.1109Z" fill="white"/>
<path d="M150.191 20.1716C149.339 20.1716 148.457 20.1413 148.122 19.4128C147.97 19.079 147.909 18.6541 147.909 18.1077C147.909 14.4352 151.043 6.66524 151.529 5.54223C151.682 5.26907 152.016 5.17802 152.351 5.17802C153.142 5.17802 154.115 5.69399 154.115 6.08856V6.17961C153.75 7.18121 150.556 15.5279 150.221 18.6541L150.191 19.2307C150.191 19.4432 150.191 19.5342 150.252 19.5646C150.313 19.5646 150.373 19.7164 150.373 19.8681C150.373 19.9895 150.343 20.1716 150.191 20.1716Z" fill="white"/>
<path d="M166.473 21.5981H166.412C163.614 21.5981 161.119 19.7771 161.119 15.8921C161.119 10.702 165.439 2.6892 171.219 2.6285C173.957 2.6285 175.234 4.17642 175.234 6.36172C175.234 8.97195 173.318 12.7052 171.645 13.8282C171.371 14.0103 171.036 14.1013 170.641 14.1013C169.637 14.1013 168.359 13.4943 168.268 12.8266C168.268 12.6445 168.39 12.5231 168.572 12.5231C170.245 12.3713 173.561 7.48473 173.561 5.26907C173.561 4.54064 173.135 4.23712 172.496 4.23712C172.253 4.23712 172.04 4.29782 171.827 4.32818C167.933 5.14766 164.222 12.9176 164.222 17.3793C164.222 19.17 164.891 20.1413 166.625 20.1716C170.032 20.1716 173.622 16.2259 175.356 13.6461C175.417 13.555 175.539 13.4943 175.63 13.4943C175.812 13.5247 175.934 13.5854 175.934 13.7978L175.904 13.9192C174.322 17.7739 171.006 21.5981 166.473 21.5981Z" fill="white"/>
<path d="M177.691 19.17C178.877 19.17 180.064 16.2259 180.398 15.285C179.912 14.9208 179.729 14.3745 179.729 13.8585C179.729 12.9783 180.277 12.0981 180.855 11.9464C180.763 11.5518 180.581 11.2483 180.185 11.2483H180.033C178.573 11.4911 176.961 15.6189 176.961 17.8042C176.961 18.563 177.143 19.1093 177.6 19.17H177.691ZM177.478 20.1109C175.561 20.1109 174.77 18.563 174.77 16.6205C174.77 13.4943 176.87 9.39687 179.699 9.39687C179.942 9.39687 180.185 9.42722 180.459 9.48792C181.919 9.85214 182.345 11.218 182.345 12.6445C182.345 13.5247 182.163 14.4656 181.95 15.1636C182.954 15.1636 184.049 14.6477 184.566 13.6461C184.627 13.5247 184.718 13.4943 184.809 13.4943C184.87 13.4943 184.931 13.5247 184.992 13.555C185.083 13.5854 185.114 13.6764 185.114 13.7675C185.114 13.8282 185.114 13.8889 185.083 13.9496C184.475 15.1029 183.197 15.7707 181.98 15.7707H181.737C181.068 17.6828 179.577 20.1109 177.478 20.1109Z" fill="white"/>
<path d="M190.765 20.1413C189.669 20.1413 188.909 19.8985 188.909 18.3809C188.97 16.1652 190.673 11.2483 190.704 10.8841C190.704 10.793 190.673 10.7323 190.612 10.7323C190.521 10.7323 190.4 10.8234 190.308 10.9144C188.848 12.2195 186.779 15.6189 186.232 16.5598C185.867 17.8953 185.563 19.1093 185.532 19.8074C185.532 20.0806 185.38 20.1109 185.137 20.1109H184.985C184.254 20.1109 183.281 19.9592 183.251 19.2611C183.251 17.7132 185.045 11.7339 185.806 9.76108C185.897 9.51827 186.201 9.39687 186.566 9.39687C187.297 9.39687 188.3 9.82179 188.3 10.3074L188.27 10.4288C188.027 11.0055 187.023 14.0103 186.932 14.2531C187.388 13.5854 187.905 12.8266 188.453 12.1285C189.365 10.9448 190.643 9.39687 191.921 9.39687C192.681 9.39687 193.32 9.85214 193.32 10.6716L193.29 11.0358C192.864 13.1301 191.403 17.1972 191.403 18.9576C191.403 19.3218 191.434 19.5039 191.586 19.5039C192.346 19.4432 192.894 18.4416 195.024 13.6764C195.084 13.555 195.176 13.4943 195.267 13.4943C195.449 13.4943 195.602 13.6157 195.602 13.7978C195.602 13.8282 195.602 13.8585 195.571 13.9192C193.442 18.7451 192.772 20.0502 191.616 20.1109L190.765 20.1413Z" fill="white"/>
<path d="M196.628 20.1109H196.172C195.442 20.1109 194.742 20.0199 194.468 19.3825C194.316 19.0486 194.225 18.563 194.225 18.0167C194.225 15.6493 195.472 11.7036 196.598 8.66843C195.989 8.63808 195.411 8.63808 194.925 8.63808C194.742 8.60773 194.62 8.45597 194.62 8.33457C194.62 8.18281 194.742 8.03105 194.925 8.03105L196.811 8.0614C197.206 7.02945 197.571 6.14926 197.876 5.48153C197.967 5.20837 198.271 5.11731 198.636 5.11731C199.427 5.11731 200.522 5.60294 200.522 6.05821L200.492 6.14926C200.218 6.75629 199.944 7.42402 199.67 8.15246L201.191 8.18281C201.374 8.18281 201.496 8.33457 201.496 8.48632C201.496 8.63808 201.374 8.78984 201.161 8.78984C200.644 8.75949 200.066 8.75949 199.427 8.75949C198.484 11.5518 197.45 14.678 196.841 17.2579C196.78 17.44 196.507 18.6844 196.507 19.2307C196.507 19.4432 196.537 19.5039 196.628 19.5039C196.963 19.5039 197.541 18.7755 197.754 18.5023C198.697 17.2275 199.792 14.9815 200.4 13.6764C200.461 13.5247 200.553 13.4943 200.674 13.4943C200.705 13.4943 200.766 13.4943 200.826 13.5247C200.918 13.5854 200.978 13.6764 200.978 13.7978C200.978 13.7978 200.978 13.8585 200.948 13.9192C200.309 15.3761 199.184 17.6221 198.149 18.9879C197.784 19.4128 197.206 20.0806 196.628 20.1109Z" fill="white"/>
<path d="M204.927 20.1109H204.622C203.892 20.1109 202.828 20.0806 202.462 19.3825C202.31 19.079 202.219 18.6541 202.219 18.1684C202.219 15.8921 203.74 12.1285 204.288 10.4895C203.892 10.5199 203.345 10.6716 202.828 10.6716C202.675 10.6716 202.493 10.6716 202.341 10.6109C201.884 11.7946 201.611 12.4017 200.911 13.9192C200.881 14.0103 200.759 14.1013 200.668 14.1013C200.607 14.1013 200.576 14.1013 200.516 14.071C200.424 14.0406 200.333 13.9799 200.333 13.7978C200.333 13.7675 200.333 13.7371 200.363 13.6764C201.094 12.0678 201.306 11.5822 201.824 10.3378C201.55 10.1253 201.428 9.82179 201.428 9.48792C201.428 9.063 201.58 8.60773 201.732 8.21316C201.824 7.97035 202.158 7.87929 202.462 7.87929C202.828 7.87929 203.223 8.0007 203.223 8.24351L203.193 8.33457C203.071 8.75949 202.828 9.45757 202.736 9.67003C203.558 9.63968 204.257 9.39687 204.896 9.39687C205.657 9.39687 206.417 9.97354 206.539 10.7627L206.569 10.9751C206.569 11.4608 206.326 12.0981 205.991 13.0694C205.505 14.4352 204.531 17.1365 204.531 18.6541L204.592 19.17C204.653 19.4432 204.774 19.5342 204.927 19.5342C205.322 19.5342 205.9 18.8362 206.052 18.5934C206.63 17.7435 207.391 16.2259 208.547 13.6764C208.608 13.555 208.699 13.4943 208.79 13.4943C208.881 13.4943 208.942 13.5247 209.003 13.555C209.064 13.5854 209.125 13.6764 209.125 13.7978C209.125 13.8282 209.125 13.8585 209.094 13.9192C207.938 16.4991 207.178 18.047 206.569 18.9272C205.9 19.8985 205.474 20.1109 204.927 20.1109Z" fill="white"/>
<path d="M210.754 17.8346C211.667 17.8042 213.309 14.6173 213.613 13.8585C213.766 13.464 214.039 12.6445 214.039 11.9767C214.039 11.5518 213.918 11.218 213.583 11.1269L213.4 11.0965C212.032 11.0965 210.298 15.2243 210.298 17.0151C210.298 17.5311 210.45 17.8346 210.754 17.8346ZM215.287 20.1109H214.922C214.161 20.1109 213.37 20.0199 213.035 19.3825C212.853 19.079 212.792 18.6237 212.792 18.1077C212.792 17.8042 212.823 17.5007 212.853 17.1365C212.153 18.3505 211.18 19.5342 209.993 19.5342H209.932C208.472 19.5039 207.864 18.2898 207.864 16.7116C207.864 13.7068 210.054 9.42722 213.066 9.42722H213.096C213.887 9.42722 214.526 9.70038 214.891 10.2771L215.104 9.73073C215.256 9.48792 215.53 9.39687 215.895 9.39687C216.595 9.39687 217.538 9.82179 217.538 10.3074L217.507 10.4288C217.112 11.4001 215.135 16.6205 215.074 18.8058C215.074 19.2307 215.104 19.5039 215.256 19.5039C216.26 19.4735 218.177 15.5886 219.059 13.6764C219.12 13.5247 219.211 13.4943 219.333 13.4943L219.485 13.5247C219.576 13.555 219.637 13.6461 219.637 13.7675C219.637 13.8282 219.637 13.8282 219.606 13.9192C218.603 16.0742 216.716 20.0502 215.287 20.1109Z" fill="white"/>
<path d="M222.274 20.1109H221.94C219.354 20.0199 218.411 18.5023 218.411 16.5902C218.411 15.6493 218.624 14.6477 218.989 13.6764C219.749 11.7036 221.362 9.39687 223.583 9.39687C223.796 9.39687 224.039 9.42722 224.252 9.45757C225.469 9.70038 225.925 10.5806 225.925 11.4608C225.925 12.0374 225.712 12.6445 225.377 13.039C225.134 13.3122 224.86 13.464 224.556 13.464C224.374 13.464 224.161 13.4033 223.978 13.2818C223.887 13.2211 223.856 13.1301 223.856 13.0087C223.856 12.9783 223.856 12.9176 223.887 12.8873C224.008 12.6748 224.617 11.6429 224.617 11.1572C224.617 11.0055 224.556 10.9144 224.434 10.8841H224.343C223.491 10.8841 221.757 13.0087 221.149 15.285C220.997 15.7403 220.906 16.3473 220.906 16.9544C220.906 18.0167 221.21 19.079 222.092 19.3825C222.244 19.4128 222.396 19.4432 222.548 19.4432C222.761 19.4432 222.974 19.4128 223.218 19.3521C224.313 18.9576 225.834 17.6525 227.75 13.6764C227.811 13.5247 227.902 13.4943 227.994 13.4943C228.085 13.4943 228.146 13.5247 228.146 13.5247C228.237 13.5854 228.298 13.6764 228.298 13.7978C228.298 13.7978 228.298 13.8585 228.267 13.9192C226.26 18.1381 224.586 19.5039 223.37 19.9288C222.944 20.0806 222.579 20.1109 222.274 20.1109Z" fill="white"/>
<path d="M229.367 20.1109H228.91C228.18 20.1109 227.481 20.0199 227.207 19.3825C227.055 19.0486 226.963 18.563 226.963 18.0167C226.963 15.6493 228.211 11.7036 229.336 8.66843C228.728 8.63808 228.15 8.63808 227.663 8.63808C227.481 8.60773 227.359 8.45597 227.359 8.33457C227.359 8.18281 227.481 8.03105 227.663 8.03105L229.549 8.0614C229.945 7.02945 230.31 6.14926 230.614 5.48153C230.705 5.20837 231.009 5.11731 231.374 5.11731C232.165 5.11731 233.261 5.60294 233.261 6.05821L233.23 6.14926C232.956 6.75629 232.683 7.42402 232.409 8.15246L233.93 8.18281C234.112 8.18281 234.234 8.33457 234.234 8.48632C234.234 8.63808 234.112 8.78984 233.899 8.78984C233.382 8.75949 232.804 8.75949 232.165 8.75949C231.222 11.5518 230.188 14.678 229.58 17.2579C229.519 17.44 229.245 18.6844 229.245 19.2307C229.245 19.4432 229.275 19.5039 229.367 19.5039C229.701 19.5039 230.279 18.7755 230.492 18.5023C231.435 17.2275 232.53 14.9815 233.139 13.6764C233.2 13.5247 233.291 13.4943 233.413 13.4943C233.443 13.4943 233.504 13.4943 233.565 13.5247C233.656 13.5854 233.717 13.6764 233.717 13.7978C233.717 13.7978 233.717 13.8585 233.686 13.9192C233.048 15.3761 231.922 17.6221 230.888 18.9879C230.523 19.4128 229.945 20.0806 229.367 20.1109Z" fill="white"/>
<path d="M235.475 19.17C236.661 19.17 237.847 16.1956 238.152 15.2547C237.665 14.8905 237.482 14.3441 237.482 13.8282C237.482 12.948 238.03 12.0981 238.608 11.916C238.517 11.5518 238.365 11.2483 237.939 11.2483C236.387 11.3697 234.744 15.3457 234.744 17.8042C234.744 18.7148 234.957 19.1397 235.475 19.17ZM235.231 20.1109C233.315 20.1109 232.524 18.563 232.524 16.6205C232.524 13.4943 234.623 9.36652 237.452 9.36652C237.695 9.36652 237.969 9.39687 238.212 9.45757C239.673 9.85214 240.099 11.1269 240.099 12.5231C240.099 13.4033 239.916 14.3745 239.703 15.1636H239.734C241.589 15.1636 242.989 11.7946 243.506 10.3378C243.232 10.1253 243.141 9.82179 243.141 9.48792C243.141 9.063 243.293 8.60773 243.445 8.18281C243.536 7.97035 243.84 7.87929 244.175 7.87929C244.54 7.87929 244.905 8.0007 244.905 8.24351V8.33457L244.449 9.67003C245.209 9.63968 245.879 9.39687 246.487 9.39687C247.461 9.42722 248.16 9.91284 248.282 10.9751C248.282 12.1285 246.244 16.2259 246.244 18.6541C246.305 19.2307 246.305 19.5342 246.639 19.5342C247.035 19.5342 247.613 18.8362 247.765 18.5934C248.343 17.7435 249.103 16.2259 250.259 13.6461C250.32 13.5247 250.411 13.4943 250.503 13.4943C250.655 13.4943 250.837 13.6157 250.837 13.7978C250.837 13.7978 250.837 13.8585 250.807 13.9192C248.434 19.2004 247.704 20.0806 246.67 20.0806H246.305C245.574 20.0806 244.51 20.0502 244.175 19.3825C243.993 19.079 243.932 18.6541 243.932 18.1381C243.932 15.8617 245.453 12.0678 246 10.4592C245.544 10.5199 244.966 10.6716 244.479 10.6716L244.053 10.6109C243.293 12.4927 242.015 15.7403 239.764 15.7403H239.521C238.821 17.6525 237.33 20.1109 235.231 20.1109Z" fill="white"/>
<path d="M251.855 20.1109H251.581C249.786 20.1109 248.935 18.9576 248.935 17.6525C248.935 16.9544 249.178 16.2259 249.634 15.5886C249.786 15.3761 250.03 15.285 250.273 15.285C250.973 15.285 251.855 15.9224 251.855 16.3473C251.855 16.408 251.825 16.4991 251.733 16.5598C251.247 16.9544 250.821 18.0167 250.821 18.6541C250.821 18.8969 250.881 19.0486 251.003 19.1397C251.064 19.2004 251.125 19.2004 251.186 19.2004C251.368 19.2004 251.581 19.0486 251.733 18.8665C252.159 18.3202 252.281 17.5614 252.281 16.7116C252.281 15.2547 251.916 13.555 251.916 12.2195C251.916 12.0071 251.916 11.7946 251.946 11.5822L250.851 13.9496C250.79 14.0406 250.669 14.1013 250.577 14.1013C250.516 14.1013 250.486 14.1013 250.425 14.071C250.364 14.0406 250.273 14.0103 250.273 13.8585C250.273 13.7978 250.273 13.7068 250.303 13.6461C250.547 13.0997 252.129 9.39687 252.707 9.39687H254.958C255.14 9.39687 255.262 9.51827 255.262 9.67003C255.262 9.73073 255.262 9.82179 255.201 9.88249C254.654 10.702 254.471 11.5215 254.471 12.3106C254.471 13.5854 254.897 14.8601 254.897 16.1652C254.897 16.4688 254.867 16.7723 254.806 17.0758C254.654 17.7739 254.471 18.3202 254.197 18.7451C254.593 18.3202 255.232 17.5007 255.718 16.7723C256.236 15.9528 256.814 14.9512 257.422 13.6461C257.483 13.5247 257.574 13.4943 257.696 13.4943C257.726 13.4943 257.787 13.4943 257.848 13.5247C257.939 13.5854 258 13.6764 258 13.7978L257.97 13.9192C257.422 15.0726 256.814 16.1956 256.175 17.1668C255.718 17.8649 255.262 18.4719 254.745 19.0486C253.832 20.0502 252.768 20.1109 251.855 20.1109Z" fill="white"/>
</svg>
